G04 EAGLE Gerber RS-274X export*
G75*
%MOMM*%
%FSLAX34Y34*%
%LPD*%
%INTop Copper*%
%IPPOS*%
%AMOC8*
5,1,8,0,0,1.08239X$1,22.5*%
G01*
G04 Define Apertures*
%ADD10R,0.635000X1.270000*%
%ADD11C,1.108000*%
%ADD12C,0.152400*%
%ADD13C,0.756400*%
D10*
X546100Y500380D03*
X520700Y500380D03*
X495300Y500380D03*
X469900Y500380D03*
X444500Y500380D03*
X419100Y500380D03*
X393700Y500380D03*
X368300Y500380D03*
X342900Y500380D03*
X317500Y500380D03*
X292100Y500380D03*
X266700Y500380D03*
X241300Y500380D03*
X215900Y500380D03*
X215900Y474980D03*
X215900Y449580D03*
X215900Y424180D03*
X215900Y398780D03*
X215900Y373380D03*
X215900Y347980D03*
X241300Y347980D03*
X266700Y347980D03*
X292100Y347980D03*
X317500Y347980D03*
X342900Y347980D03*
X368300Y347980D03*
X393700Y347980D03*
X419100Y347980D03*
X444500Y347980D03*
X469900Y347980D03*
X495300Y347980D03*
X546100Y347980D03*
X520700Y347980D03*
D11*
X747776Y519430D03*
X557784Y519430D03*
X367792Y519430D03*
X177800Y519430D03*
X2138680Y709930D03*
X2044700Y709930D03*
X1887728Y709930D03*
X1697736Y709930D03*
X1507744Y709930D03*
X1317752Y709930D03*
X1127760Y709930D03*
X937768Y709930D03*
X747776Y709930D03*
X557784Y709930D03*
X367792Y709930D03*
X177800Y709930D03*
X2251964Y711200D03*
X2251964Y520700D03*
X1507744Y330200D03*
X1317752Y330200D03*
X1127760Y330200D03*
X937768Y330200D03*
X747776Y330200D03*
X557784Y330200D03*
X367792Y330200D03*
X177800Y330200D03*
X2138680Y519430D03*
X2044700Y519430D03*
X1887728Y519430D03*
X1697736Y519430D03*
X1507744Y519430D03*
X1317752Y519430D03*
X1127760Y519430D03*
X937768Y519430D03*
X2138680Y139700D03*
X2044700Y139700D03*
X1887728Y139700D03*
X1697736Y139700D03*
X1507744Y139700D03*
X1317752Y139700D03*
X1127760Y139700D03*
X937768Y139700D03*
X747776Y139700D03*
X557784Y139700D03*
X367792Y139700D03*
X177800Y139700D03*
X2138680Y330200D03*
X2044700Y330200D03*
X1887728Y330200D03*
X1697736Y330200D03*
X215900Y635000D03*
D12*
X2159000Y685800D02*
X2251964Y592836D01*
X2251964Y520700D01*
X567189Y685800D02*
X431800Y550411D01*
X567189Y685800D02*
X2159000Y685800D01*
X448622Y339344D02*
X440378Y339344D01*
X431800Y347922D01*
X431800Y550411D01*
X469900Y500380D02*
X469900Y385311D01*
X457200Y372611D01*
X457200Y347922D02*
X448622Y339344D01*
X457200Y347922D02*
X457200Y372611D01*
X520700Y431800D02*
X520700Y500380D01*
X520700Y431800D02*
X460248Y371348D01*
X1168400Y723900D02*
X1203452Y688848D01*
X2229612Y688848D02*
X2251964Y711200D01*
X2229612Y688848D02*
X1203452Y688848D01*
X1168400Y723900D02*
X600979Y723900D01*
X428752Y551673D01*
X439116Y336296D02*
X449884Y336296D01*
X428752Y346660D02*
X428752Y551673D01*
X428752Y346660D02*
X439116Y336296D01*
X449884Y336296D02*
X460248Y346660D01*
X460248Y371348D01*
D13*
X1219200Y635000D03*
D12*
X444500Y347980D02*
X434848Y357632D01*
X434848Y549148D01*
X546100Y660400D01*
X1215082Y660400D01*
X1225268Y650214D01*
X1225268Y641068D01*
X1219200Y635000D01*
D13*
X1219200Y431800D03*
D12*
X571500Y431800D01*
X508000Y368300D01*
X508000Y330200D01*
X495300Y317500D01*
X431800Y317500D01*
X419100Y330200D01*
X419100Y347980D01*
D13*
X1231900Y241300D03*
D12*
X1193800Y279400D01*
X1193800Y292100D01*
X1181100Y304800D01*
X419100Y304800D01*
X393700Y330200D01*
X393700Y347980D01*
X368300Y347980D02*
X368300Y348038D01*
X254000Y622300D02*
X241300Y635000D01*
X215900Y635000D01*
X254000Y622300D02*
X254000Y386022D01*
X351594Y364744D02*
X368300Y348038D01*
X254000Y386022D02*
X245422Y377444D01*
X211778Y364744D02*
X351594Y364744D01*
X211778Y364744D02*
X210439Y366083D01*
X210439Y380677D01*
X211778Y382016D01*
X220022Y382016D01*
X224594Y377444D01*
X245422Y377444D01*
D13*
X1231996Y292196D03*
D12*
X1168400Y736600D02*
X101600Y736600D01*
X76200Y711200D01*
X76200Y482600D01*
X134620Y424180D01*
X215900Y424180D01*
X1231996Y292196D02*
X1257300Y266892D01*
X1257300Y139700D01*
X1231900Y114300D01*
X114300Y114300D01*
X76200Y152400D01*
X76200Y482600D01*
D13*
X1219200Y694916D03*
D12*
X1210084Y694916D02*
X1168400Y736600D01*
X1210084Y694916D02*
X1219200Y694916D01*
X1257300Y444500D02*
X1257300Y266892D01*
D13*
X1225268Y482600D03*
D12*
X1225268Y476532D02*
X1257300Y444500D01*
X1225268Y476532D02*
X1225268Y482600D01*
D13*
X1219200Y647700D03*
X1219200Y444500D03*
X1231900Y254000D03*
D12*
X1193800Y469900D02*
X1193800Y622300D01*
X1193800Y469900D02*
X1219200Y444500D01*
X1219200Y266700D02*
X1231900Y254000D01*
X1219200Y266700D02*
X1219200Y317500D01*
X1231900Y330200D01*
X1231900Y431800D01*
X1219200Y444500D01*
X571500Y444500D01*
X482600Y355600D01*
X482600Y342900D01*
X406458Y373380D02*
X215900Y373380D01*
X406458Y373380D02*
X424561Y355277D01*
X463804Y324104D02*
X482600Y342900D01*
X463804Y324104D02*
X441975Y324104D01*
X424561Y341518D01*
X424561Y355277D01*
X1193800Y622300D02*
X1219200Y647700D01*
D13*
X1219200Y673100D03*
X1219200Y469900D03*
X1231900Y279400D03*
D12*
X1219200Y469900D02*
X1219200Y609600D01*
X1219200Y469900D02*
X1234948Y454152D01*
X1231900Y279400D02*
X1244600Y266700D01*
X1244600Y241300D02*
X1212850Y209550D01*
X247650Y209550D01*
X152400Y304800D01*
X152400Y368300D01*
X182880Y398780D01*
X215900Y398780D01*
X1219200Y609600D02*
X1244600Y635000D01*
X1244600Y647700D02*
X1219200Y673100D01*
X1244600Y647700D02*
X1244600Y635000D01*
X1244600Y266700D02*
X1244600Y241300D01*
X1231900Y279400D02*
X1222248Y289052D01*
X1222248Y316237D01*
X1234948Y328937D01*
X1234948Y454152D01*
M02*
