M48
;GenerationSoftware,Autodesk,EAGLE,9.7.0*%
;CreationDate,2022-01-14T18:35:23Z*%
FMAT,2
ICI,OFF
METRIC,TZ,000.000
T3C0.350
T2C0.600
%
G90
M71
T2
X36779Y51943
X131775Y13970
X112776Y13970
X93777Y13970
X74778Y13970
X36779Y13970
X17780Y13970
X131775Y33020
X213868Y33020
X204470Y33020
X188773Y33020
X169774Y33020
X74778Y51943
X55778Y51943
X21590Y63500
X17780Y51943
X213868Y70993
X204470Y70993
X188773Y70993
X169774Y70993
X150774Y70993
X131775Y70993
X112776Y70993
X93777Y70993
X74778Y70993
X55778Y70993
X36779Y70993
X17780Y70993
X225196Y71120
X225196Y52070
X150774Y33020
X55778Y13970
X112776Y33020
X93777Y33020
X74778Y33020
X55778Y33020
X36779Y33020
X17780Y33020
X213868Y51943
X204470Y51943
X188773Y51943
X169774Y51943
X150774Y51943
X131775Y51943
X112776Y51943
X93777Y51943
X213868Y13970
X204470Y13970
X188773Y13970
X169774Y13970
X150774Y13970
T3
X121920Y43180
X123190Y24130
X123200Y29220
X121920Y69492
X122527Y48260
X121920Y64770
X123190Y25400
X121920Y67310
X121920Y46990
X123190Y27940
X121920Y44450
X121920Y63500
M30