G04 EAGLE Gerber RS-274X export*
G75*
%MOMM*%
%FSLAX34Y34*%
%LPD*%
%INSilkscreen Bottom*%
%IPPOS*%
%AMOC8*
5,1,8,0,0,1.08239X$1,22.5*%
G01*
G04 Define Apertures*
%ADD10C,0.152400*%
%ADD11C,0.050800*%
%ADD12R,0.127000X0.508000*%
G36*
X1167122Y703417D02*
X1167565Y703453D01*
X1167992Y703514D01*
X1168403Y703599D01*
X1168799Y703708D01*
X1169178Y703841D01*
X1169542Y703998D01*
X1169891Y704180D01*
X1170221Y704384D01*
X1170531Y704609D01*
X1170821Y704855D01*
X1171091Y705122D01*
X1171340Y705409D01*
X1171569Y705717D01*
X1171778Y706046D01*
X1171967Y706396D01*
X1172134Y706764D01*
X1172279Y707149D01*
X1172402Y707551D01*
X1172502Y707969D01*
X1172580Y708404D01*
X1172636Y708855D01*
X1172669Y709323D01*
X1172680Y709807D01*
X1172674Y710171D01*
X1172655Y710525D01*
X1172624Y710869D01*
X1172581Y711203D01*
X1172525Y711527D01*
X1172456Y711841D01*
X1172375Y712145D01*
X1172282Y712439D01*
X1172176Y712723D01*
X1172058Y712997D01*
X1171784Y713515D01*
X1171460Y713994D01*
X1171086Y714432D01*
X1170669Y714824D01*
X1170213Y715164D01*
X1169970Y715314D01*
X1169718Y715451D01*
X1169457Y715575D01*
X1169186Y715686D01*
X1168905Y715785D01*
X1168615Y715869D01*
X1168315Y715941D01*
X1168006Y716000D01*
X1167687Y716046D01*
X1167358Y716079D01*
X1167020Y716098D01*
X1166672Y716105D01*
X1166189Y716093D01*
X1165727Y716057D01*
X1165285Y715996D01*
X1164863Y715912D01*
X1164462Y715804D01*
X1164081Y715671D01*
X1163720Y715515D01*
X1163379Y715334D01*
X1163059Y715130D01*
X1162761Y714902D01*
X1162485Y714651D01*
X1162231Y714377D01*
X1161999Y714080D01*
X1161789Y713759D01*
X1161601Y713415D01*
X1161434Y713048D01*
X1163020Y712522D01*
X1163135Y712784D01*
X1163267Y713029D01*
X1163415Y713259D01*
X1163579Y713473D01*
X1163760Y713671D01*
X1163957Y713853D01*
X1164170Y714019D01*
X1164399Y714169D01*
X1164642Y714303D01*
X1164897Y714418D01*
X1165162Y714516D01*
X1165438Y714596D01*
X1165726Y714658D01*
X1166024Y714703D01*
X1166334Y714729D01*
X1166655Y714738D01*
X1167153Y714718D01*
X1167622Y714656D01*
X1168064Y714553D01*
X1168476Y714409D01*
X1168861Y714223D01*
X1169216Y713997D01*
X1169544Y713729D01*
X1169843Y713420D01*
X1170109Y713075D01*
X1170341Y712700D01*
X1170536Y712294D01*
X1170697Y711858D01*
X1170821Y711391D01*
X1170910Y710894D01*
X1170963Y710366D01*
X1170981Y709807D01*
X1170963Y709254D01*
X1170907Y708729D01*
X1170814Y708231D01*
X1170685Y707761D01*
X1170518Y707319D01*
X1170314Y706905D01*
X1170073Y706518D01*
X1169794Y706159D01*
X1169485Y705836D01*
X1169149Y705556D01*
X1168787Y705319D01*
X1168399Y705125D01*
X1167984Y704974D01*
X1167544Y704866D01*
X1167077Y704801D01*
X1166584Y704780D01*
X1166265Y704790D01*
X1165956Y704820D01*
X1165658Y704870D01*
X1165369Y704940D01*
X1165090Y705031D01*
X1164821Y705141D01*
X1164562Y705271D01*
X1164314Y705421D01*
X1164075Y705592D01*
X1163847Y705782D01*
X1163628Y705993D01*
X1163420Y706223D01*
X1163222Y706474D01*
X1163033Y706745D01*
X1162855Y707035D01*
X1162687Y707346D01*
X1161321Y706663D01*
X1161521Y706276D01*
X1161740Y705914D01*
X1161979Y705575D01*
X1162237Y705259D01*
X1162514Y704968D01*
X1162811Y704701D01*
X1163127Y704457D01*
X1163462Y704237D01*
X1163814Y704042D01*
X1164179Y703873D01*
X1164559Y703730D01*
X1164952Y703613D01*
X1165359Y703522D01*
X1165780Y703457D01*
X1166215Y703418D01*
X1166663Y703405D01*
X1167122Y703417D01*
G37*
G36*
X1159256Y704920D02*
X1156112Y704920D01*
X1156112Y714414D01*
X1158897Y712426D01*
X1158897Y713915D01*
X1155981Y715921D01*
X1154527Y715921D01*
X1154527Y704920D01*
X1151522Y704920D01*
X1151522Y703580D01*
X1159256Y703580D01*
X1159256Y704920D01*
G37*
G36*
X1176905Y715921D02*
X1175232Y715921D01*
X1175232Y703580D01*
X1176905Y703580D01*
X1176905Y715921D01*
G37*
G36*
X1167122Y512917D02*
X1167565Y512953D01*
X1167992Y513014D01*
X1168403Y513099D01*
X1168799Y513208D01*
X1169178Y513341D01*
X1169542Y513498D01*
X1169891Y513680D01*
X1170221Y513884D01*
X1170531Y514109D01*
X1170821Y514355D01*
X1171091Y514622D01*
X1171340Y514909D01*
X1171569Y515217D01*
X1171778Y515546D01*
X1171967Y515896D01*
X1172134Y516264D01*
X1172279Y516649D01*
X1172402Y517051D01*
X1172502Y517469D01*
X1172580Y517904D01*
X1172636Y518355D01*
X1172669Y518823D01*
X1172680Y519307D01*
X1172674Y519671D01*
X1172655Y520025D01*
X1172624Y520369D01*
X1172581Y520703D01*
X1172525Y521027D01*
X1172456Y521341D01*
X1172375Y521645D01*
X1172282Y521939D01*
X1172176Y522223D01*
X1172058Y522497D01*
X1171784Y523015D01*
X1171460Y523494D01*
X1171086Y523932D01*
X1170669Y524324D01*
X1170213Y524664D01*
X1169970Y524814D01*
X1169718Y524951D01*
X1169457Y525075D01*
X1169186Y525186D01*
X1168905Y525285D01*
X1168615Y525369D01*
X1168315Y525441D01*
X1168006Y525500D01*
X1167687Y525546D01*
X1167358Y525579D01*
X1167020Y525598D01*
X1166672Y525605D01*
X1166189Y525593D01*
X1165727Y525557D01*
X1165285Y525496D01*
X1164863Y525412D01*
X1164462Y525304D01*
X1164081Y525171D01*
X1163720Y525015D01*
X1163379Y524834D01*
X1163059Y524630D01*
X1162761Y524402D01*
X1162485Y524151D01*
X1162231Y523877D01*
X1161999Y523580D01*
X1161789Y523259D01*
X1161601Y522915D01*
X1161434Y522548D01*
X1163020Y522022D01*
X1163135Y522284D01*
X1163267Y522529D01*
X1163415Y522759D01*
X1163579Y522973D01*
X1163760Y523171D01*
X1163957Y523353D01*
X1164170Y523519D01*
X1164399Y523669D01*
X1164642Y523803D01*
X1164897Y523918D01*
X1165162Y524016D01*
X1165438Y524096D01*
X1165726Y524158D01*
X1166024Y524203D01*
X1166334Y524229D01*
X1166655Y524238D01*
X1167153Y524218D01*
X1167622Y524156D01*
X1168064Y524053D01*
X1168476Y523909D01*
X1168861Y523723D01*
X1169216Y523497D01*
X1169544Y523229D01*
X1169843Y522920D01*
X1170109Y522575D01*
X1170341Y522200D01*
X1170536Y521794D01*
X1170697Y521358D01*
X1170821Y520891D01*
X1170910Y520394D01*
X1170963Y519866D01*
X1170981Y519307D01*
X1170963Y518754D01*
X1170907Y518229D01*
X1170814Y517731D01*
X1170685Y517261D01*
X1170518Y516819D01*
X1170314Y516405D01*
X1170073Y516018D01*
X1169794Y515659D01*
X1169485Y515336D01*
X1169149Y515056D01*
X1168787Y514819D01*
X1168399Y514625D01*
X1167984Y514474D01*
X1167544Y514366D01*
X1167077Y514301D01*
X1166584Y514280D01*
X1166265Y514290D01*
X1165956Y514320D01*
X1165658Y514370D01*
X1165369Y514440D01*
X1165090Y514531D01*
X1164821Y514641D01*
X1164562Y514771D01*
X1164314Y514921D01*
X1164075Y515092D01*
X1163847Y515282D01*
X1163628Y515493D01*
X1163420Y515723D01*
X1163222Y515974D01*
X1163033Y516245D01*
X1162855Y516535D01*
X1162687Y516846D01*
X1161321Y516163D01*
X1161521Y515776D01*
X1161740Y515414D01*
X1161979Y515075D01*
X1162237Y514759D01*
X1162514Y514468D01*
X1162811Y514201D01*
X1163127Y513957D01*
X1163462Y513737D01*
X1163814Y513542D01*
X1164179Y513373D01*
X1164559Y513230D01*
X1164952Y513113D01*
X1165359Y513022D01*
X1165780Y512957D01*
X1166215Y512918D01*
X1166663Y512905D01*
X1167122Y512917D01*
G37*
G36*
X1159720Y514192D02*
X1159485Y514690D01*
X1159224Y515157D01*
X1158940Y515594D01*
X1158630Y516001D01*
X1158304Y516384D01*
X1157970Y516748D01*
X1157627Y517093D01*
X1157277Y517420D01*
X1156571Y518032D01*
X1155871Y518598D01*
X1155209Y519141D01*
X1154614Y519684D01*
X1154347Y519959D01*
X1154107Y520240D01*
X1153894Y520528D01*
X1153708Y520823D01*
X1153556Y521130D01*
X1153448Y521458D01*
X1153383Y521805D01*
X1153362Y522171D01*
X1153371Y522418D01*
X1153399Y522651D01*
X1153445Y522869D01*
X1153511Y523073D01*
X1153594Y523263D01*
X1153697Y523439D01*
X1153818Y523601D01*
X1153957Y523748D01*
X1154113Y523879D01*
X1154284Y523993D01*
X1154469Y524089D01*
X1154669Y524168D01*
X1154883Y524230D01*
X1155112Y524273D01*
X1155355Y524300D01*
X1155613Y524308D01*
X1155859Y524300D01*
X1156094Y524274D01*
X1156318Y524231D01*
X1156531Y524172D01*
X1156733Y524095D01*
X1156924Y524001D01*
X1157104Y523889D01*
X1157272Y523761D01*
X1157427Y523617D01*
X1157565Y523460D01*
X1157686Y523288D01*
X1157790Y523103D01*
X1157878Y522904D01*
X1157948Y522691D01*
X1158002Y522464D01*
X1158039Y522224D01*
X1159650Y522373D01*
X1159592Y522733D01*
X1159506Y523075D01*
X1159391Y523398D01*
X1159249Y523702D01*
X1159077Y523987D01*
X1158878Y524253D01*
X1158650Y524500D01*
X1158393Y524729D01*
X1158113Y524934D01*
X1157814Y525112D01*
X1157495Y525263D01*
X1157157Y525386D01*
X1156800Y525482D01*
X1156424Y525550D01*
X1156028Y525591D01*
X1155613Y525605D01*
X1155160Y525591D01*
X1154734Y525550D01*
X1154335Y525481D01*
X1153963Y525385D01*
X1153618Y525261D01*
X1153300Y525110D01*
X1153008Y524931D01*
X1152744Y524724D01*
X1152509Y524493D01*
X1152305Y524238D01*
X1152133Y523960D01*
X1151992Y523659D01*
X1151882Y523335D01*
X1151804Y522988D01*
X1151757Y522617D01*
X1151741Y522224D01*
X1151762Y521865D01*
X1151823Y521508D01*
X1151926Y521152D01*
X1152070Y520796D01*
X1152254Y520442D01*
X1152478Y520087D01*
X1152742Y519732D01*
X1153046Y519377D01*
X1153444Y518974D01*
X1153990Y518473D01*
X1154684Y517875D01*
X1155525Y517179D01*
X1156003Y516777D01*
X1156429Y516396D01*
X1156804Y516035D01*
X1157128Y515694D01*
X1157405Y515367D01*
X1157640Y515045D01*
X1157834Y514730D01*
X1157986Y514420D01*
X1151549Y514420D01*
X1151549Y513080D01*
X1159720Y513080D01*
X1159720Y514192D01*
G37*
G36*
X1176905Y525421D02*
X1175232Y525421D01*
X1175232Y513080D01*
X1176905Y513080D01*
X1176905Y525421D01*
G37*
G36*
X1167122Y323687D02*
X1167565Y323723D01*
X1167992Y323784D01*
X1168403Y323869D01*
X1168799Y323978D01*
X1169178Y324111D01*
X1169542Y324268D01*
X1169891Y324450D01*
X1170221Y324654D01*
X1170531Y324879D01*
X1170821Y325125D01*
X1171091Y325392D01*
X1171340Y325679D01*
X1171569Y325987D01*
X1171778Y326316D01*
X1171967Y326666D01*
X1172134Y327034D01*
X1172279Y327419D01*
X1172402Y327821D01*
X1172502Y328239D01*
X1172580Y328674D01*
X1172636Y329125D01*
X1172669Y329593D01*
X1172680Y330077D01*
X1172674Y330441D01*
X1172655Y330795D01*
X1172624Y331139D01*
X1172581Y331473D01*
X1172525Y331797D01*
X1172456Y332111D01*
X1172375Y332415D01*
X1172282Y332709D01*
X1172176Y332993D01*
X1172058Y333267D01*
X1171784Y333785D01*
X1171460Y334264D01*
X1171086Y334702D01*
X1170669Y335094D01*
X1170213Y335434D01*
X1169970Y335584D01*
X1169718Y335721D01*
X1169457Y335845D01*
X1169186Y335956D01*
X1168905Y336055D01*
X1168615Y336139D01*
X1168315Y336211D01*
X1168006Y336270D01*
X1167687Y336316D01*
X1167358Y336349D01*
X1167020Y336368D01*
X1166672Y336375D01*
X1166189Y336363D01*
X1165727Y336327D01*
X1165285Y336266D01*
X1164863Y336182D01*
X1164462Y336074D01*
X1164081Y335941D01*
X1163720Y335785D01*
X1163379Y335604D01*
X1163059Y335400D01*
X1162761Y335172D01*
X1162485Y334921D01*
X1162231Y334647D01*
X1161999Y334350D01*
X1161789Y334029D01*
X1161601Y333685D01*
X1161434Y333318D01*
X1163020Y332792D01*
X1163135Y333054D01*
X1163267Y333299D01*
X1163415Y333529D01*
X1163579Y333743D01*
X1163760Y333941D01*
X1163957Y334123D01*
X1164170Y334289D01*
X1164399Y334439D01*
X1164642Y334573D01*
X1164897Y334688D01*
X1165162Y334786D01*
X1165438Y334866D01*
X1165726Y334928D01*
X1166024Y334973D01*
X1166334Y334999D01*
X1166655Y335008D01*
X1167153Y334988D01*
X1167622Y334926D01*
X1168064Y334823D01*
X1168476Y334679D01*
X1168861Y334493D01*
X1169216Y334267D01*
X1169544Y333999D01*
X1169843Y333690D01*
X1170109Y333345D01*
X1170341Y332970D01*
X1170536Y332564D01*
X1170697Y332128D01*
X1170821Y331661D01*
X1170910Y331164D01*
X1170963Y330636D01*
X1170981Y330077D01*
X1170963Y329524D01*
X1170907Y328999D01*
X1170814Y328501D01*
X1170685Y328031D01*
X1170518Y327589D01*
X1170314Y327175D01*
X1170073Y326788D01*
X1169794Y326429D01*
X1169485Y326106D01*
X1169149Y325826D01*
X1168787Y325589D01*
X1168399Y325395D01*
X1167984Y325244D01*
X1167544Y325136D01*
X1167077Y325071D01*
X1166584Y325050D01*
X1166265Y325060D01*
X1165956Y325090D01*
X1165658Y325140D01*
X1165369Y325210D01*
X1165090Y325301D01*
X1164821Y325411D01*
X1164562Y325541D01*
X1164314Y325691D01*
X1164075Y325862D01*
X1163847Y326052D01*
X1163628Y326263D01*
X1163420Y326493D01*
X1163222Y326744D01*
X1163033Y327015D01*
X1162855Y327305D01*
X1162687Y327616D01*
X1161321Y326933D01*
X1161521Y326546D01*
X1161740Y326184D01*
X1161979Y325845D01*
X1162237Y325529D01*
X1162514Y325238D01*
X1162811Y324971D01*
X1163127Y324727D01*
X1163462Y324507D01*
X1163814Y324312D01*
X1164179Y324143D01*
X1164559Y324000D01*
X1164952Y323883D01*
X1165359Y323792D01*
X1165780Y323727D01*
X1166215Y323688D01*
X1166663Y323675D01*
X1167122Y323687D01*
G37*
G36*
X1156078Y323688D02*
X1156511Y323728D01*
X1156921Y323794D01*
X1157306Y323886D01*
X1157668Y324005D01*
X1158007Y324150D01*
X1158321Y324322D01*
X1158612Y324520D01*
X1158877Y324744D01*
X1159114Y324993D01*
X1159323Y325268D01*
X1159503Y325568D01*
X1159654Y325893D01*
X1159778Y326244D01*
X1159873Y326619D01*
X1159939Y327021D01*
X1158310Y327169D01*
X1158263Y326904D01*
X1158199Y326656D01*
X1158120Y326425D01*
X1158024Y326212D01*
X1157912Y326015D01*
X1157784Y325835D01*
X1157640Y325673D01*
X1157480Y325527D01*
X1157304Y325399D01*
X1157112Y325288D01*
X1156904Y325194D01*
X1156680Y325117D01*
X1156439Y325057D01*
X1156183Y325014D01*
X1155910Y324988D01*
X1155621Y324980D01*
X1155332Y324989D01*
X1155058Y325017D01*
X1154800Y325062D01*
X1154558Y325127D01*
X1154333Y325209D01*
X1154123Y325310D01*
X1153929Y325429D01*
X1153751Y325567D01*
X1153592Y325722D01*
X1153454Y325896D01*
X1153338Y326087D01*
X1153242Y326296D01*
X1153168Y326523D01*
X1153115Y326767D01*
X1153083Y327029D01*
X1153073Y327310D01*
X1153085Y327555D01*
X1153121Y327786D01*
X1153182Y328003D01*
X1153266Y328206D01*
X1153375Y328396D01*
X1153509Y328572D01*
X1153666Y328734D01*
X1153848Y328882D01*
X1154052Y329014D01*
X1154278Y329129D01*
X1154526Y329226D01*
X1154795Y329305D01*
X1155085Y329367D01*
X1155397Y329411D01*
X1155731Y329438D01*
X1156086Y329447D01*
X1156979Y329447D01*
X1156979Y330813D01*
X1156121Y330813D01*
X1155806Y330822D01*
X1155509Y330848D01*
X1155230Y330892D01*
X1154970Y330954D01*
X1154728Y331034D01*
X1154504Y331131D01*
X1154298Y331246D01*
X1154111Y331378D01*
X1153943Y331526D01*
X1153798Y331688D01*
X1153676Y331863D01*
X1153575Y332051D01*
X1153497Y332253D01*
X1153441Y332469D01*
X1153408Y332699D01*
X1153397Y332941D01*
X1153406Y333182D01*
X1153433Y333410D01*
X1153479Y333625D01*
X1153542Y333827D01*
X1153624Y334016D01*
X1153724Y334192D01*
X1153843Y334355D01*
X1153979Y334505D01*
X1154134Y334639D01*
X1154306Y334756D01*
X1154495Y334854D01*
X1154703Y334935D01*
X1154928Y334998D01*
X1155171Y335043D01*
X1155431Y335069D01*
X1155709Y335078D01*
X1155963Y335070D01*
X1156205Y335045D01*
X1156435Y335003D01*
X1156652Y334945D01*
X1156856Y334870D01*
X1157048Y334778D01*
X1157228Y334669D01*
X1157395Y334544D01*
X1157548Y334404D01*
X1157683Y334250D01*
X1157802Y334082D01*
X1157904Y333900D01*
X1157989Y333705D01*
X1158058Y333496D01*
X1158109Y333274D01*
X1158144Y333038D01*
X1159729Y333160D01*
X1159671Y333529D01*
X1159585Y333876D01*
X1159470Y334203D01*
X1159327Y334509D01*
X1159156Y334794D01*
X1158956Y335059D01*
X1158729Y335302D01*
X1158472Y335525D01*
X1158192Y335724D01*
X1157893Y335897D01*
X1157574Y336043D01*
X1157236Y336162D01*
X1156879Y336255D01*
X1156502Y336322D01*
X1156107Y336361D01*
X1155691Y336375D01*
X1155240Y336361D01*
X1154815Y336321D01*
X1154415Y336253D01*
X1154042Y336159D01*
X1153694Y336038D01*
X1153372Y335889D01*
X1153076Y335714D01*
X1152806Y335512D01*
X1152564Y335286D01*
X1152355Y335038D01*
X1152178Y334770D01*
X1152034Y334480D01*
X1151921Y334168D01*
X1151841Y333836D01*
X1151792Y333483D01*
X1151776Y333108D01*
X1151787Y332819D01*
X1151818Y332544D01*
X1151869Y332283D01*
X1151942Y332036D01*
X1152035Y331803D01*
X1152148Y331583D01*
X1152283Y331377D01*
X1152438Y331185D01*
X1152612Y331008D01*
X1152806Y330845D01*
X1153018Y330697D01*
X1153249Y330565D01*
X1153499Y330447D01*
X1153767Y330344D01*
X1154054Y330256D01*
X1154360Y330182D01*
X1154360Y330147D01*
X1154024Y330100D01*
X1153707Y330034D01*
X1153409Y329947D01*
X1153130Y329841D01*
X1152870Y329715D01*
X1152629Y329569D01*
X1152408Y329404D01*
X1152206Y329219D01*
X1152025Y329018D01*
X1151868Y328804D01*
X1151736Y328578D01*
X1151628Y328339D01*
X1151543Y328087D01*
X1151483Y327823D01*
X1151447Y327546D01*
X1151435Y327257D01*
X1151452Y326842D01*
X1151503Y326451D01*
X1151588Y326085D01*
X1151706Y325742D01*
X1151859Y325423D01*
X1152046Y325129D01*
X1152266Y324858D01*
X1152521Y324612D01*
X1152807Y324392D01*
X1153122Y324202D01*
X1153466Y324041D01*
X1153839Y323909D01*
X1154241Y323807D01*
X1154672Y323733D01*
X1155132Y323690D01*
X1155621Y323675D01*
X1156078Y323688D01*
G37*
G36*
X1176905Y336191D02*
X1175232Y336191D01*
X1175232Y323850D01*
X1176905Y323850D01*
X1176905Y336191D01*
G37*
D10*
X1105662Y548640D02*
X1105662Y695960D01*
X1180338Y548640D02*
X1180336Y548518D01*
X1180330Y548396D01*
X1180320Y548274D01*
X1180307Y548153D01*
X1180289Y548032D01*
X1180268Y547912D01*
X1180242Y547792D01*
X1180213Y547674D01*
X1180181Y547556D01*
X1180144Y547439D01*
X1180104Y547324D01*
X1180060Y547210D01*
X1180012Y547098D01*
X1179961Y546987D01*
X1179906Y546878D01*
X1179848Y546770D01*
X1179786Y546665D01*
X1179721Y546562D01*
X1179653Y546460D01*
X1179581Y546361D01*
X1179507Y546265D01*
X1179429Y546170D01*
X1179348Y546079D01*
X1179265Y545989D01*
X1179179Y545903D01*
X1179089Y545820D01*
X1178998Y545739D01*
X1178903Y545661D01*
X1178807Y545587D01*
X1178708Y545515D01*
X1178606Y545447D01*
X1178503Y545382D01*
X1178398Y545320D01*
X1178290Y545262D01*
X1178181Y545207D01*
X1178070Y545156D01*
X1177958Y545108D01*
X1177844Y545064D01*
X1177729Y545024D01*
X1177612Y544987D01*
X1177494Y544955D01*
X1177376Y544926D01*
X1177256Y544900D01*
X1177136Y544879D01*
X1177015Y544861D01*
X1176894Y544848D01*
X1176772Y544838D01*
X1176650Y544832D01*
X1176528Y544830D01*
X1105662Y695960D02*
X1105664Y696082D01*
X1105670Y696204D01*
X1105680Y696326D01*
X1105693Y696447D01*
X1105711Y696568D01*
X1105732Y696688D01*
X1105758Y696808D01*
X1105787Y696926D01*
X1105819Y697044D01*
X1105856Y697161D01*
X1105896Y697276D01*
X1105940Y697390D01*
X1105988Y697502D01*
X1106039Y697613D01*
X1106094Y697722D01*
X1106152Y697830D01*
X1106214Y697935D01*
X1106279Y698038D01*
X1106347Y698140D01*
X1106419Y698239D01*
X1106493Y698335D01*
X1106571Y698430D01*
X1106652Y698521D01*
X1106735Y698611D01*
X1106821Y698697D01*
X1106911Y698780D01*
X1107002Y698861D01*
X1107097Y698939D01*
X1107193Y699013D01*
X1107292Y699085D01*
X1107394Y699153D01*
X1107497Y699218D01*
X1107602Y699280D01*
X1107710Y699338D01*
X1107819Y699393D01*
X1107930Y699444D01*
X1108042Y699492D01*
X1108156Y699536D01*
X1108271Y699576D01*
X1108388Y699613D01*
X1108506Y699645D01*
X1108624Y699674D01*
X1108744Y699700D01*
X1108864Y699721D01*
X1108985Y699739D01*
X1109106Y699752D01*
X1109228Y699762D01*
X1109350Y699768D01*
X1109472Y699770D01*
X1105662Y548640D02*
X1105664Y548518D01*
X1105670Y548396D01*
X1105680Y548274D01*
X1105693Y548153D01*
X1105711Y548032D01*
X1105732Y547912D01*
X1105758Y547792D01*
X1105787Y547674D01*
X1105819Y547556D01*
X1105856Y547439D01*
X1105896Y547324D01*
X1105940Y547210D01*
X1105988Y547098D01*
X1106039Y546987D01*
X1106094Y546878D01*
X1106152Y546770D01*
X1106214Y546665D01*
X1106279Y546562D01*
X1106347Y546460D01*
X1106419Y546361D01*
X1106493Y546265D01*
X1106571Y546170D01*
X1106652Y546079D01*
X1106735Y545989D01*
X1106821Y545903D01*
X1106911Y545820D01*
X1107002Y545739D01*
X1107097Y545661D01*
X1107193Y545587D01*
X1107292Y545515D01*
X1107394Y545447D01*
X1107497Y545382D01*
X1107602Y545320D01*
X1107710Y545262D01*
X1107819Y545207D01*
X1107930Y545156D01*
X1108042Y545108D01*
X1108156Y545064D01*
X1108271Y545024D01*
X1108388Y544987D01*
X1108506Y544955D01*
X1108624Y544926D01*
X1108744Y544900D01*
X1108864Y544879D01*
X1108985Y544861D01*
X1109106Y544848D01*
X1109228Y544838D01*
X1109350Y544832D01*
X1109472Y544830D01*
X1180338Y695960D02*
X1180336Y696082D01*
X1180330Y696204D01*
X1180320Y696326D01*
X1180307Y696447D01*
X1180289Y696568D01*
X1180268Y696688D01*
X1180242Y696808D01*
X1180213Y696926D01*
X1180181Y697044D01*
X1180144Y697161D01*
X1180104Y697276D01*
X1180060Y697390D01*
X1180012Y697502D01*
X1179961Y697613D01*
X1179906Y697722D01*
X1179848Y697830D01*
X1179786Y697935D01*
X1179721Y698038D01*
X1179653Y698140D01*
X1179581Y698239D01*
X1179507Y698335D01*
X1179429Y698430D01*
X1179348Y698521D01*
X1179265Y698611D01*
X1179179Y698697D01*
X1179089Y698780D01*
X1178998Y698861D01*
X1178903Y698939D01*
X1178807Y699013D01*
X1178708Y699085D01*
X1178606Y699153D01*
X1178503Y699218D01*
X1178398Y699280D01*
X1178290Y699338D01*
X1178181Y699393D01*
X1178070Y699444D01*
X1177958Y699492D01*
X1177844Y699536D01*
X1177729Y699576D01*
X1177612Y699613D01*
X1177494Y699645D01*
X1177376Y699674D01*
X1177256Y699700D01*
X1177136Y699721D01*
X1177015Y699739D01*
X1176894Y699752D01*
X1176772Y699762D01*
X1176650Y699768D01*
X1176528Y699770D01*
X1180338Y695960D02*
X1180338Y548640D01*
X1176528Y544830D02*
X1109472Y544830D01*
X1109472Y699770D02*
X1130300Y699770D01*
X1155700Y699770D01*
X1176528Y699770D01*
D11*
X1176782Y699770D02*
X1176782Y544830D01*
D10*
X1155700Y699770D02*
X1155696Y699461D01*
X1155685Y699152D01*
X1155666Y698843D01*
X1155640Y698535D01*
X1155606Y698227D01*
X1155565Y697921D01*
X1155516Y697615D01*
X1155460Y697311D01*
X1155396Y697009D01*
X1155325Y696708D01*
X1155247Y696408D01*
X1155162Y696111D01*
X1155069Y695816D01*
X1154969Y695523D01*
X1154862Y695233D01*
X1154748Y694946D01*
X1154627Y694661D01*
X1154499Y694379D01*
X1154365Y694101D01*
X1154223Y693826D01*
X1154075Y693554D01*
X1153920Y693287D01*
X1153759Y693023D01*
X1153592Y692763D01*
X1153418Y692507D01*
X1153238Y692255D01*
X1153052Y692008D01*
X1152860Y691766D01*
X1152662Y691528D01*
X1152459Y691295D01*
X1152249Y691067D01*
X1152035Y690845D01*
X1151815Y690627D01*
X1151589Y690415D01*
X1151359Y690209D01*
X1151124Y690008D01*
X1150884Y689813D01*
X1150639Y689624D01*
X1150390Y689441D01*
X1150136Y689264D01*
X1149878Y689094D01*
X1149616Y688929D01*
X1149350Y688771D01*
X1149080Y688620D01*
X1148807Y688475D01*
X1148530Y688337D01*
X1148250Y688206D01*
X1147967Y688082D01*
X1147681Y687964D01*
X1147392Y687854D01*
X1147101Y687750D01*
X1146807Y687654D01*
X1146511Y687565D01*
X1146212Y687483D01*
X1145912Y687408D01*
X1145610Y687341D01*
X1145307Y687281D01*
X1145002Y687229D01*
X1144696Y687184D01*
X1144389Y687146D01*
X1144081Y687116D01*
X1143773Y687094D01*
X1143464Y687078D01*
X1143155Y687071D01*
X1142845Y687071D01*
X1142536Y687078D01*
X1142227Y687094D01*
X1141919Y687116D01*
X1141611Y687146D01*
X1141304Y687184D01*
X1140998Y687229D01*
X1140693Y687281D01*
X1140390Y687341D01*
X1140088Y687408D01*
X1139788Y687483D01*
X1139489Y687565D01*
X1139193Y687654D01*
X1138899Y687750D01*
X1138608Y687854D01*
X1138319Y687964D01*
X1138033Y688082D01*
X1137750Y688206D01*
X1137470Y688337D01*
X1137193Y688475D01*
X1136920Y688620D01*
X1136650Y688771D01*
X1136384Y688929D01*
X1136122Y689094D01*
X1135864Y689264D01*
X1135610Y689441D01*
X1135361Y689624D01*
X1135116Y689813D01*
X1134876Y690008D01*
X1134641Y690209D01*
X1134411Y690415D01*
X1134185Y690627D01*
X1133965Y690845D01*
X1133751Y691067D01*
X1133541Y691295D01*
X1133338Y691528D01*
X1133140Y691766D01*
X1132948Y692008D01*
X1132762Y692255D01*
X1132582Y692507D01*
X1132408Y692763D01*
X1132241Y693023D01*
X1132080Y693287D01*
X1131925Y693554D01*
X1131777Y693826D01*
X1131635Y694101D01*
X1131501Y694379D01*
X1131373Y694661D01*
X1131252Y694946D01*
X1131138Y695233D01*
X1131031Y695523D01*
X1130931Y695816D01*
X1130838Y696111D01*
X1130753Y696408D01*
X1130675Y696708D01*
X1130604Y697009D01*
X1130540Y697311D01*
X1130484Y697615D01*
X1130435Y697921D01*
X1130394Y698227D01*
X1130360Y698535D01*
X1130334Y698843D01*
X1130315Y699152D01*
X1130304Y699461D01*
X1130300Y699770D01*
D12*
X1180973Y692150D03*
X1180973Y679450D03*
X1180973Y666750D03*
X1180973Y654050D03*
X1180973Y641350D03*
X1180973Y628650D03*
X1180973Y615950D03*
X1180973Y603250D03*
X1105027Y692150D03*
X1105027Y679450D03*
X1105027Y666750D03*
X1105027Y654050D03*
X1105027Y641350D03*
X1105027Y628650D03*
X1105027Y615950D03*
X1105027Y603250D03*
X1105027Y590550D03*
X1105027Y577850D03*
X1105027Y565150D03*
X1105027Y552450D03*
X1180973Y590550D03*
X1180973Y577850D03*
X1180973Y565150D03*
X1180973Y552450D03*
D10*
X1105662Y505460D02*
X1105662Y358140D01*
X1176528Y354330D02*
X1176650Y354332D01*
X1176772Y354338D01*
X1176894Y354348D01*
X1177015Y354361D01*
X1177136Y354379D01*
X1177256Y354400D01*
X1177376Y354426D01*
X1177494Y354455D01*
X1177612Y354487D01*
X1177729Y354524D01*
X1177844Y354564D01*
X1177958Y354608D01*
X1178070Y354656D01*
X1178181Y354707D01*
X1178290Y354762D01*
X1178398Y354820D01*
X1178503Y354882D01*
X1178606Y354947D01*
X1178708Y355015D01*
X1178807Y355087D01*
X1178903Y355161D01*
X1178998Y355239D01*
X1179089Y355320D01*
X1179179Y355403D01*
X1179265Y355489D01*
X1179348Y355579D01*
X1179429Y355670D01*
X1179507Y355765D01*
X1179581Y355861D01*
X1179653Y355960D01*
X1179721Y356062D01*
X1179786Y356165D01*
X1179848Y356270D01*
X1179906Y356378D01*
X1179961Y356487D01*
X1180012Y356598D01*
X1180060Y356710D01*
X1180104Y356824D01*
X1180144Y356939D01*
X1180181Y357056D01*
X1180213Y357174D01*
X1180242Y357292D01*
X1180268Y357412D01*
X1180289Y357532D01*
X1180307Y357653D01*
X1180320Y357774D01*
X1180330Y357896D01*
X1180336Y358018D01*
X1180338Y358140D01*
X1105662Y505460D02*
X1105664Y505582D01*
X1105670Y505704D01*
X1105680Y505826D01*
X1105693Y505947D01*
X1105711Y506068D01*
X1105732Y506188D01*
X1105758Y506308D01*
X1105787Y506426D01*
X1105819Y506544D01*
X1105856Y506661D01*
X1105896Y506776D01*
X1105940Y506890D01*
X1105988Y507002D01*
X1106039Y507113D01*
X1106094Y507222D01*
X1106152Y507330D01*
X1106214Y507435D01*
X1106279Y507538D01*
X1106347Y507640D01*
X1106419Y507739D01*
X1106493Y507835D01*
X1106571Y507930D01*
X1106652Y508021D01*
X1106735Y508111D01*
X1106821Y508197D01*
X1106911Y508280D01*
X1107002Y508361D01*
X1107097Y508439D01*
X1107193Y508513D01*
X1107292Y508585D01*
X1107394Y508653D01*
X1107497Y508718D01*
X1107602Y508780D01*
X1107710Y508838D01*
X1107819Y508893D01*
X1107930Y508944D01*
X1108042Y508992D01*
X1108156Y509036D01*
X1108271Y509076D01*
X1108388Y509113D01*
X1108506Y509145D01*
X1108624Y509174D01*
X1108744Y509200D01*
X1108864Y509221D01*
X1108985Y509239D01*
X1109106Y509252D01*
X1109228Y509262D01*
X1109350Y509268D01*
X1109472Y509270D01*
X1105662Y358140D02*
X1105664Y358018D01*
X1105670Y357896D01*
X1105680Y357774D01*
X1105693Y357653D01*
X1105711Y357532D01*
X1105732Y357412D01*
X1105758Y357292D01*
X1105787Y357174D01*
X1105819Y357056D01*
X1105856Y356939D01*
X1105896Y356824D01*
X1105940Y356710D01*
X1105988Y356598D01*
X1106039Y356487D01*
X1106094Y356378D01*
X1106152Y356270D01*
X1106214Y356165D01*
X1106279Y356062D01*
X1106347Y355960D01*
X1106419Y355861D01*
X1106493Y355765D01*
X1106571Y355670D01*
X1106652Y355579D01*
X1106735Y355489D01*
X1106821Y355403D01*
X1106911Y355320D01*
X1107002Y355239D01*
X1107097Y355161D01*
X1107193Y355087D01*
X1107292Y355015D01*
X1107394Y354947D01*
X1107497Y354882D01*
X1107602Y354820D01*
X1107710Y354762D01*
X1107819Y354707D01*
X1107930Y354656D01*
X1108042Y354608D01*
X1108156Y354564D01*
X1108271Y354524D01*
X1108388Y354487D01*
X1108506Y354455D01*
X1108624Y354426D01*
X1108744Y354400D01*
X1108864Y354379D01*
X1108985Y354361D01*
X1109106Y354348D01*
X1109228Y354338D01*
X1109350Y354332D01*
X1109472Y354330D01*
X1180338Y505460D02*
X1180336Y505582D01*
X1180330Y505704D01*
X1180320Y505826D01*
X1180307Y505947D01*
X1180289Y506068D01*
X1180268Y506188D01*
X1180242Y506308D01*
X1180213Y506426D01*
X1180181Y506544D01*
X1180144Y506661D01*
X1180104Y506776D01*
X1180060Y506890D01*
X1180012Y507002D01*
X1179961Y507113D01*
X1179906Y507222D01*
X1179848Y507330D01*
X1179786Y507435D01*
X1179721Y507538D01*
X1179653Y507640D01*
X1179581Y507739D01*
X1179507Y507835D01*
X1179429Y507930D01*
X1179348Y508021D01*
X1179265Y508111D01*
X1179179Y508197D01*
X1179089Y508280D01*
X1178998Y508361D01*
X1178903Y508439D01*
X1178807Y508513D01*
X1178708Y508585D01*
X1178606Y508653D01*
X1178503Y508718D01*
X1178398Y508780D01*
X1178290Y508838D01*
X1178181Y508893D01*
X1178070Y508944D01*
X1177958Y508992D01*
X1177844Y509036D01*
X1177729Y509076D01*
X1177612Y509113D01*
X1177494Y509145D01*
X1177376Y509174D01*
X1177256Y509200D01*
X1177136Y509221D01*
X1177015Y509239D01*
X1176894Y509252D01*
X1176772Y509262D01*
X1176650Y509268D01*
X1176528Y509270D01*
X1180338Y505460D02*
X1180338Y358140D01*
X1176528Y354330D02*
X1109472Y354330D01*
X1109472Y509270D02*
X1130300Y509270D01*
X1155700Y509270D01*
X1176528Y509270D01*
D11*
X1176782Y509270D02*
X1176782Y354330D01*
D10*
X1155700Y509270D02*
X1155696Y508961D01*
X1155685Y508652D01*
X1155666Y508343D01*
X1155640Y508035D01*
X1155606Y507727D01*
X1155565Y507421D01*
X1155516Y507115D01*
X1155460Y506811D01*
X1155396Y506509D01*
X1155325Y506208D01*
X1155247Y505908D01*
X1155162Y505611D01*
X1155069Y505316D01*
X1154969Y505023D01*
X1154862Y504733D01*
X1154748Y504446D01*
X1154627Y504161D01*
X1154499Y503879D01*
X1154365Y503601D01*
X1154223Y503326D01*
X1154075Y503054D01*
X1153920Y502787D01*
X1153759Y502523D01*
X1153592Y502263D01*
X1153418Y502007D01*
X1153238Y501755D01*
X1153052Y501508D01*
X1152860Y501266D01*
X1152662Y501028D01*
X1152459Y500795D01*
X1152249Y500567D01*
X1152035Y500345D01*
X1151815Y500127D01*
X1151589Y499915D01*
X1151359Y499709D01*
X1151124Y499508D01*
X1150884Y499313D01*
X1150639Y499124D01*
X1150390Y498941D01*
X1150136Y498764D01*
X1149878Y498594D01*
X1149616Y498429D01*
X1149350Y498271D01*
X1149080Y498120D01*
X1148807Y497975D01*
X1148530Y497837D01*
X1148250Y497706D01*
X1147967Y497582D01*
X1147681Y497464D01*
X1147392Y497354D01*
X1147101Y497250D01*
X1146807Y497154D01*
X1146511Y497065D01*
X1146212Y496983D01*
X1145912Y496908D01*
X1145610Y496841D01*
X1145307Y496781D01*
X1145002Y496729D01*
X1144696Y496684D01*
X1144389Y496646D01*
X1144081Y496616D01*
X1143773Y496594D01*
X1143464Y496578D01*
X1143155Y496571D01*
X1142845Y496571D01*
X1142536Y496578D01*
X1142227Y496594D01*
X1141919Y496616D01*
X1141611Y496646D01*
X1141304Y496684D01*
X1140998Y496729D01*
X1140693Y496781D01*
X1140390Y496841D01*
X1140088Y496908D01*
X1139788Y496983D01*
X1139489Y497065D01*
X1139193Y497154D01*
X1138899Y497250D01*
X1138608Y497354D01*
X1138319Y497464D01*
X1138033Y497582D01*
X1137750Y497706D01*
X1137470Y497837D01*
X1137193Y497975D01*
X1136920Y498120D01*
X1136650Y498271D01*
X1136384Y498429D01*
X1136122Y498594D01*
X1135864Y498764D01*
X1135610Y498941D01*
X1135361Y499124D01*
X1135116Y499313D01*
X1134876Y499508D01*
X1134641Y499709D01*
X1134411Y499915D01*
X1134185Y500127D01*
X1133965Y500345D01*
X1133751Y500567D01*
X1133541Y500795D01*
X1133338Y501028D01*
X1133140Y501266D01*
X1132948Y501508D01*
X1132762Y501755D01*
X1132582Y502007D01*
X1132408Y502263D01*
X1132241Y502523D01*
X1132080Y502787D01*
X1131925Y503054D01*
X1131777Y503326D01*
X1131635Y503601D01*
X1131501Y503879D01*
X1131373Y504161D01*
X1131252Y504446D01*
X1131138Y504733D01*
X1131031Y505023D01*
X1130931Y505316D01*
X1130838Y505611D01*
X1130753Y505908D01*
X1130675Y506208D01*
X1130604Y506509D01*
X1130540Y506811D01*
X1130484Y507115D01*
X1130435Y507421D01*
X1130394Y507727D01*
X1130360Y508035D01*
X1130334Y508343D01*
X1130315Y508652D01*
X1130304Y508961D01*
X1130300Y509270D01*
D12*
X1180973Y501650D03*
X1180973Y488950D03*
X1180973Y476250D03*
X1180973Y463550D03*
X1180973Y450850D03*
X1180973Y438150D03*
X1180973Y425450D03*
X1180973Y412750D03*
X1105027Y501650D03*
X1105027Y488950D03*
X1105027Y476250D03*
X1105027Y463550D03*
X1105027Y450850D03*
X1105027Y438150D03*
X1105027Y425450D03*
X1105027Y412750D03*
X1105027Y400050D03*
X1105027Y387350D03*
X1105027Y374650D03*
X1105027Y361950D03*
X1180973Y400050D03*
X1180973Y387350D03*
X1180973Y374650D03*
X1180973Y361950D03*
D10*
X1105662Y316230D02*
X1105662Y168910D01*
X1176528Y165100D02*
X1176650Y165102D01*
X1176772Y165108D01*
X1176894Y165118D01*
X1177015Y165131D01*
X1177136Y165149D01*
X1177256Y165170D01*
X1177376Y165196D01*
X1177494Y165225D01*
X1177612Y165257D01*
X1177729Y165294D01*
X1177844Y165334D01*
X1177958Y165378D01*
X1178070Y165426D01*
X1178181Y165477D01*
X1178290Y165532D01*
X1178398Y165590D01*
X1178503Y165652D01*
X1178606Y165717D01*
X1178708Y165785D01*
X1178807Y165857D01*
X1178903Y165931D01*
X1178998Y166009D01*
X1179089Y166090D01*
X1179179Y166173D01*
X1179265Y166259D01*
X1179348Y166349D01*
X1179429Y166440D01*
X1179507Y166535D01*
X1179581Y166631D01*
X1179653Y166730D01*
X1179721Y166832D01*
X1179786Y166935D01*
X1179848Y167040D01*
X1179906Y167148D01*
X1179961Y167257D01*
X1180012Y167368D01*
X1180060Y167480D01*
X1180104Y167594D01*
X1180144Y167709D01*
X1180181Y167826D01*
X1180213Y167944D01*
X1180242Y168062D01*
X1180268Y168182D01*
X1180289Y168302D01*
X1180307Y168423D01*
X1180320Y168544D01*
X1180330Y168666D01*
X1180336Y168788D01*
X1180338Y168910D01*
X1105662Y316230D02*
X1105664Y316352D01*
X1105670Y316474D01*
X1105680Y316596D01*
X1105693Y316717D01*
X1105711Y316838D01*
X1105732Y316958D01*
X1105758Y317078D01*
X1105787Y317196D01*
X1105819Y317314D01*
X1105856Y317431D01*
X1105896Y317546D01*
X1105940Y317660D01*
X1105988Y317772D01*
X1106039Y317883D01*
X1106094Y317992D01*
X1106152Y318100D01*
X1106214Y318205D01*
X1106279Y318308D01*
X1106347Y318410D01*
X1106419Y318509D01*
X1106493Y318605D01*
X1106571Y318700D01*
X1106652Y318791D01*
X1106735Y318881D01*
X1106821Y318967D01*
X1106911Y319050D01*
X1107002Y319131D01*
X1107097Y319209D01*
X1107193Y319283D01*
X1107292Y319355D01*
X1107394Y319423D01*
X1107497Y319488D01*
X1107602Y319550D01*
X1107710Y319608D01*
X1107819Y319663D01*
X1107930Y319714D01*
X1108042Y319762D01*
X1108156Y319806D01*
X1108271Y319846D01*
X1108388Y319883D01*
X1108506Y319915D01*
X1108624Y319944D01*
X1108744Y319970D01*
X1108864Y319991D01*
X1108985Y320009D01*
X1109106Y320022D01*
X1109228Y320032D01*
X1109350Y320038D01*
X1109472Y320040D01*
X1105662Y168910D02*
X1105664Y168788D01*
X1105670Y168666D01*
X1105680Y168544D01*
X1105693Y168423D01*
X1105711Y168302D01*
X1105732Y168182D01*
X1105758Y168062D01*
X1105787Y167944D01*
X1105819Y167826D01*
X1105856Y167709D01*
X1105896Y167594D01*
X1105940Y167480D01*
X1105988Y167368D01*
X1106039Y167257D01*
X1106094Y167148D01*
X1106152Y167040D01*
X1106214Y166935D01*
X1106279Y166832D01*
X1106347Y166730D01*
X1106419Y166631D01*
X1106493Y166535D01*
X1106571Y166440D01*
X1106652Y166349D01*
X1106735Y166259D01*
X1106821Y166173D01*
X1106911Y166090D01*
X1107002Y166009D01*
X1107097Y165931D01*
X1107193Y165857D01*
X1107292Y165785D01*
X1107394Y165717D01*
X1107497Y165652D01*
X1107602Y165590D01*
X1107710Y165532D01*
X1107819Y165477D01*
X1107930Y165426D01*
X1108042Y165378D01*
X1108156Y165334D01*
X1108271Y165294D01*
X1108388Y165257D01*
X1108506Y165225D01*
X1108624Y165196D01*
X1108744Y165170D01*
X1108864Y165149D01*
X1108985Y165131D01*
X1109106Y165118D01*
X1109228Y165108D01*
X1109350Y165102D01*
X1109472Y165100D01*
X1180338Y316230D02*
X1180336Y316352D01*
X1180330Y316474D01*
X1180320Y316596D01*
X1180307Y316717D01*
X1180289Y316838D01*
X1180268Y316958D01*
X1180242Y317078D01*
X1180213Y317196D01*
X1180181Y317314D01*
X1180144Y317431D01*
X1180104Y317546D01*
X1180060Y317660D01*
X1180012Y317772D01*
X1179961Y317883D01*
X1179906Y317992D01*
X1179848Y318100D01*
X1179786Y318205D01*
X1179721Y318308D01*
X1179653Y318410D01*
X1179581Y318509D01*
X1179507Y318605D01*
X1179429Y318700D01*
X1179348Y318791D01*
X1179265Y318881D01*
X1179179Y318967D01*
X1179089Y319050D01*
X1178998Y319131D01*
X1178903Y319209D01*
X1178807Y319283D01*
X1178708Y319355D01*
X1178606Y319423D01*
X1178503Y319488D01*
X1178398Y319550D01*
X1178290Y319608D01*
X1178181Y319663D01*
X1178070Y319714D01*
X1177958Y319762D01*
X1177844Y319806D01*
X1177729Y319846D01*
X1177612Y319883D01*
X1177494Y319915D01*
X1177376Y319944D01*
X1177256Y319970D01*
X1177136Y319991D01*
X1177015Y320009D01*
X1176894Y320022D01*
X1176772Y320032D01*
X1176650Y320038D01*
X1176528Y320040D01*
X1180338Y316230D02*
X1180338Y168910D01*
X1176528Y165100D02*
X1109472Y165100D01*
X1109472Y320040D02*
X1130300Y320040D01*
X1155700Y320040D01*
X1176528Y320040D01*
D11*
X1176782Y320040D02*
X1176782Y165100D01*
D10*
X1155700Y320040D02*
X1155696Y319731D01*
X1155685Y319422D01*
X1155666Y319113D01*
X1155640Y318805D01*
X1155606Y318497D01*
X1155565Y318191D01*
X1155516Y317885D01*
X1155460Y317581D01*
X1155396Y317279D01*
X1155325Y316978D01*
X1155247Y316678D01*
X1155162Y316381D01*
X1155069Y316086D01*
X1154969Y315793D01*
X1154862Y315503D01*
X1154748Y315216D01*
X1154627Y314931D01*
X1154499Y314649D01*
X1154365Y314371D01*
X1154223Y314096D01*
X1154075Y313824D01*
X1153920Y313557D01*
X1153759Y313293D01*
X1153592Y313033D01*
X1153418Y312777D01*
X1153238Y312525D01*
X1153052Y312278D01*
X1152860Y312036D01*
X1152662Y311798D01*
X1152459Y311565D01*
X1152249Y311337D01*
X1152035Y311115D01*
X1151815Y310897D01*
X1151589Y310685D01*
X1151359Y310479D01*
X1151124Y310278D01*
X1150884Y310083D01*
X1150639Y309894D01*
X1150390Y309711D01*
X1150136Y309534D01*
X1149878Y309364D01*
X1149616Y309199D01*
X1149350Y309041D01*
X1149080Y308890D01*
X1148807Y308745D01*
X1148530Y308607D01*
X1148250Y308476D01*
X1147967Y308352D01*
X1147681Y308234D01*
X1147392Y308124D01*
X1147101Y308020D01*
X1146807Y307924D01*
X1146511Y307835D01*
X1146212Y307753D01*
X1145912Y307678D01*
X1145610Y307611D01*
X1145307Y307551D01*
X1145002Y307499D01*
X1144696Y307454D01*
X1144389Y307416D01*
X1144081Y307386D01*
X1143773Y307364D01*
X1143464Y307348D01*
X1143155Y307341D01*
X1142845Y307341D01*
X1142536Y307348D01*
X1142227Y307364D01*
X1141919Y307386D01*
X1141611Y307416D01*
X1141304Y307454D01*
X1140998Y307499D01*
X1140693Y307551D01*
X1140390Y307611D01*
X1140088Y307678D01*
X1139788Y307753D01*
X1139489Y307835D01*
X1139193Y307924D01*
X1138899Y308020D01*
X1138608Y308124D01*
X1138319Y308234D01*
X1138033Y308352D01*
X1137750Y308476D01*
X1137470Y308607D01*
X1137193Y308745D01*
X1136920Y308890D01*
X1136650Y309041D01*
X1136384Y309199D01*
X1136122Y309364D01*
X1135864Y309534D01*
X1135610Y309711D01*
X1135361Y309894D01*
X1135116Y310083D01*
X1134876Y310278D01*
X1134641Y310479D01*
X1134411Y310685D01*
X1134185Y310897D01*
X1133965Y311115D01*
X1133751Y311337D01*
X1133541Y311565D01*
X1133338Y311798D01*
X1133140Y312036D01*
X1132948Y312278D01*
X1132762Y312525D01*
X1132582Y312777D01*
X1132408Y313033D01*
X1132241Y313293D01*
X1132080Y313557D01*
X1131925Y313824D01*
X1131777Y314096D01*
X1131635Y314371D01*
X1131501Y314649D01*
X1131373Y314931D01*
X1131252Y315216D01*
X1131138Y315503D01*
X1131031Y315793D01*
X1130931Y316086D01*
X1130838Y316381D01*
X1130753Y316678D01*
X1130675Y316978D01*
X1130604Y317279D01*
X1130540Y317581D01*
X1130484Y317885D01*
X1130435Y318191D01*
X1130394Y318497D01*
X1130360Y318805D01*
X1130334Y319113D01*
X1130315Y319422D01*
X1130304Y319731D01*
X1130300Y320040D01*
D12*
X1180973Y312420D03*
X1180973Y299720D03*
X1180973Y287020D03*
X1180973Y274320D03*
X1180973Y261620D03*
X1180973Y248920D03*
X1180973Y236220D03*
X1180973Y223520D03*
X1105027Y312420D03*
X1105027Y299720D03*
X1105027Y287020D03*
X1105027Y274320D03*
X1105027Y261620D03*
X1105027Y248920D03*
X1105027Y236220D03*
X1105027Y223520D03*
X1105027Y210820D03*
X1105027Y198120D03*
X1105027Y185420D03*
X1105027Y172720D03*
X1180973Y210820D03*
X1180973Y198120D03*
X1180973Y185420D03*
X1180973Y172720D03*
M02*
