G04 EAGLE Gerber RS-274X export*
G75*
%MOMM*%
%FSLAX34Y34*%
%LPD*%
%INSoldermask Bottom*%
%IPPOS*%
%AMOC8*
5,1,8,0,0,1.08239X$1,22.5*%
G01*
G04 Define Apertures*
%ADD10R,2.235200X0.863600*%
%ADD11C,1.311200*%
%ADD12C,0.959600*%
D10*
X1193292Y692150D03*
X1193292Y679450D03*
X1193292Y666750D03*
X1193292Y654050D03*
X1193292Y641350D03*
X1193292Y628650D03*
X1193292Y615950D03*
X1193292Y603250D03*
X1092708Y603250D03*
X1092708Y615950D03*
X1092708Y628650D03*
X1092708Y641350D03*
X1092708Y654050D03*
X1092708Y666750D03*
X1092708Y679450D03*
X1092708Y692150D03*
X1092708Y590550D03*
X1092708Y577850D03*
X1092708Y565150D03*
X1092708Y552450D03*
X1193292Y590550D03*
X1193292Y577850D03*
X1193292Y565150D03*
X1193292Y552450D03*
X1193292Y501650D03*
X1193292Y488950D03*
X1193292Y476250D03*
X1193292Y463550D03*
X1193292Y450850D03*
X1193292Y438150D03*
X1193292Y425450D03*
X1193292Y412750D03*
X1092708Y412750D03*
X1092708Y425450D03*
X1092708Y438150D03*
X1092708Y450850D03*
X1092708Y463550D03*
X1092708Y476250D03*
X1092708Y488950D03*
X1092708Y501650D03*
X1092708Y400050D03*
X1092708Y387350D03*
X1092708Y374650D03*
X1092708Y361950D03*
X1193292Y400050D03*
X1193292Y387350D03*
X1193292Y374650D03*
X1193292Y361950D03*
X1193292Y312420D03*
X1193292Y299720D03*
X1193292Y287020D03*
X1193292Y274320D03*
X1193292Y261620D03*
X1193292Y248920D03*
X1193292Y236220D03*
X1193292Y223520D03*
X1092708Y223520D03*
X1092708Y236220D03*
X1092708Y248920D03*
X1092708Y261620D03*
X1092708Y274320D03*
X1092708Y287020D03*
X1092708Y299720D03*
X1092708Y312420D03*
X1092708Y210820D03*
X1092708Y198120D03*
X1092708Y185420D03*
X1092708Y172720D03*
X1193292Y210820D03*
X1193292Y198120D03*
X1193292Y185420D03*
X1193292Y172720D03*
D11*
X747776Y519430D03*
X557784Y519430D03*
X367792Y519430D03*
X177800Y519430D03*
X2138680Y709930D03*
X2044700Y709930D03*
X1887728Y709930D03*
X1697736Y709930D03*
X1507744Y709930D03*
X1317752Y709930D03*
X1127760Y709930D03*
X937768Y709930D03*
X747776Y709930D03*
X557784Y709930D03*
X367792Y709930D03*
X177800Y709930D03*
X2251964Y711200D03*
X2251964Y520700D03*
X1507744Y330200D03*
X1317752Y330200D03*
X1127760Y330200D03*
X937768Y330200D03*
X747776Y330200D03*
X557784Y330200D03*
X367792Y330200D03*
X177800Y330200D03*
X2138680Y519430D03*
X2044700Y519430D03*
X1887728Y519430D03*
X1697736Y519430D03*
X1507744Y519430D03*
X1317752Y519430D03*
X1127760Y519430D03*
X937768Y519430D03*
X2138680Y139700D03*
X2044700Y139700D03*
X1887728Y139700D03*
X1697736Y139700D03*
X1507744Y139700D03*
X1317752Y139700D03*
X1127760Y139700D03*
X937768Y139700D03*
X747776Y139700D03*
X557784Y139700D03*
X367792Y139700D03*
X177800Y139700D03*
X2138680Y330200D03*
X2044700Y330200D03*
X1887728Y330200D03*
X1697736Y330200D03*
X215900Y635000D03*
D12*
X1219200Y635000D03*
X1219200Y431800D03*
X1231900Y241300D03*
X1231996Y292196D03*
X1219200Y694916D03*
X1225268Y482600D03*
X1219200Y647700D03*
X1219200Y444500D03*
X1231900Y254000D03*
X1219200Y673100D03*
X1219200Y469900D03*
X1231900Y279400D03*
M02*
