G04 EAGLE Gerber RS-274X export*
G75*
%MOMM*%
%FSLAX34Y34*%
%LPD*%
%INTop Copper*%
%IPPOS*%
%AMOC8*
5,1,8,0,0,1.08239X$1,22.5*%
G01*
G04 Define Apertures*
%ADD10R,0.600000X0.600000*%
%ADD11R,0.560000X0.629100*%
%ADD12R,0.535100X0.644000*%
%ADD13C,5.003800*%
%ADD14C,2.247900*%
%ADD15C,1.108000*%
%ADD16C,0.152400*%
D10*
X97100Y27360D03*
X80700Y27360D03*
X97100Y43760D03*
X80700Y43760D03*
X1807028Y27360D03*
X1790628Y27360D03*
X1807028Y43760D03*
X1790628Y43760D03*
X1997020Y27360D03*
X1980620Y27360D03*
X1997020Y43760D03*
X1980620Y43760D03*
X2187012Y27360D03*
X2170612Y27360D03*
X2187012Y43760D03*
X2170612Y43760D03*
X97100Y217352D03*
X80700Y217352D03*
X97100Y233752D03*
X80700Y233752D03*
X287092Y217352D03*
X270692Y217352D03*
X287092Y233752D03*
X270692Y233752D03*
X477084Y217352D03*
X460684Y217352D03*
X477084Y233752D03*
X460684Y233752D03*
X667076Y217352D03*
X650676Y217352D03*
X667076Y233752D03*
X650676Y233752D03*
X857068Y217352D03*
X840668Y217352D03*
X857068Y233752D03*
X840668Y233752D03*
X1047060Y217352D03*
X1030660Y217352D03*
X1047060Y233752D03*
X1030660Y233752D03*
X1237052Y217352D03*
X1220652Y217352D03*
X1237052Y233752D03*
X1220652Y233752D03*
X287092Y27360D03*
X270692Y27360D03*
X287092Y43760D03*
X270692Y43760D03*
X1427044Y217352D03*
X1410644Y217352D03*
X1427044Y233752D03*
X1410644Y233752D03*
X1617036Y217352D03*
X1600636Y217352D03*
X1617036Y233752D03*
X1600636Y233752D03*
X1807028Y217352D03*
X1790628Y217352D03*
X1807028Y233752D03*
X1790628Y233752D03*
X1997020Y217352D03*
X1980620Y217352D03*
X1997020Y233752D03*
X1980620Y233752D03*
X2187012Y217352D03*
X2170612Y217352D03*
X2187012Y233752D03*
X2170612Y233752D03*
X97100Y407344D03*
X80700Y407344D03*
X97100Y423744D03*
X80700Y423744D03*
X287092Y407344D03*
X270692Y407344D03*
X287092Y423744D03*
X270692Y423744D03*
X477084Y407344D03*
X460684Y407344D03*
X477084Y423744D03*
X460684Y423744D03*
X667076Y407344D03*
X650676Y407344D03*
X667076Y423744D03*
X650676Y423744D03*
X857068Y407344D03*
X840668Y407344D03*
X857068Y423744D03*
X840668Y423744D03*
X477084Y27360D03*
X460684Y27360D03*
X477084Y43760D03*
X460684Y43760D03*
X1047060Y407344D03*
X1030660Y407344D03*
X1047060Y423744D03*
X1030660Y423744D03*
X1237052Y407344D03*
X1220652Y407344D03*
X1237052Y423744D03*
X1220652Y423744D03*
X1427044Y407344D03*
X1410644Y407344D03*
X1427044Y423744D03*
X1410644Y423744D03*
X1617036Y407344D03*
X1600636Y407344D03*
X1617036Y423744D03*
X1600636Y423744D03*
X1807028Y407344D03*
X1790628Y407344D03*
X1807028Y423744D03*
X1790628Y423744D03*
X1997020Y407344D03*
X1980620Y407344D03*
X1997020Y423744D03*
X1980620Y423744D03*
X2187012Y407344D03*
X2170612Y407344D03*
X2187012Y423744D03*
X2170612Y423744D03*
X80700Y613736D03*
X97100Y613736D03*
X80700Y597336D03*
X97100Y597336D03*
X287092Y597336D03*
X270692Y597336D03*
X287092Y613736D03*
X270692Y613736D03*
X477084Y597336D03*
X460684Y597336D03*
X477084Y613736D03*
X460684Y613736D03*
X667076Y27360D03*
X650676Y27360D03*
X667076Y43760D03*
X650676Y43760D03*
X667076Y597336D03*
X650676Y597336D03*
X667076Y613736D03*
X650676Y613736D03*
X857068Y597336D03*
X840668Y597336D03*
X857068Y613736D03*
X840668Y613736D03*
X1047060Y597336D03*
X1030660Y597336D03*
X1047060Y613736D03*
X1030660Y613736D03*
X1237052Y597336D03*
X1220652Y597336D03*
X1237052Y613736D03*
X1220652Y613736D03*
X1427044Y597336D03*
X1410644Y597336D03*
X1427044Y613736D03*
X1410644Y613736D03*
X1617036Y597336D03*
X1600636Y597336D03*
X1617036Y613736D03*
X1600636Y613736D03*
X1807028Y597336D03*
X1790628Y597336D03*
X1807028Y613736D03*
X1790628Y613736D03*
X1997020Y597336D03*
X1980620Y597336D03*
X1997020Y613736D03*
X1980620Y613736D03*
X2187012Y597336D03*
X2170612Y597336D03*
X2187012Y613736D03*
X2170612Y613736D03*
X857068Y27360D03*
X840668Y27360D03*
X857068Y43760D03*
X840668Y43760D03*
X1047060Y27360D03*
X1030660Y27360D03*
X1047060Y43760D03*
X1030660Y43760D03*
X1237052Y27360D03*
X1220652Y27360D03*
X1237052Y43760D03*
X1220652Y43760D03*
X1427044Y27360D03*
X1410644Y27360D03*
X1427044Y43760D03*
X1410644Y43760D03*
X1617036Y27360D03*
X1600636Y27360D03*
X1617036Y43760D03*
X1600636Y43760D03*
D11*
X172954Y35560D03*
X182646Y35560D03*
X1882882Y35560D03*
X1892574Y35560D03*
X2072874Y63500D03*
X2082566Y63500D03*
X2072874Y35560D03*
X2082566Y35560D03*
X172954Y225552D03*
X182646Y225552D03*
X363454Y225552D03*
X373146Y225552D03*
X552938Y225552D03*
X562630Y225552D03*
X742930Y225552D03*
X752622Y225552D03*
X932922Y225552D03*
X942614Y225552D03*
X1122914Y225552D03*
X1132606Y225552D03*
X1312906Y225552D03*
X1322598Y225552D03*
X363454Y35560D03*
X373146Y35560D03*
X1502898Y225552D03*
X1512590Y225552D03*
X1692890Y225552D03*
X1702582Y225552D03*
X1882882Y225552D03*
X1892574Y225552D03*
X2072874Y241300D03*
X2082566Y241300D03*
X2072874Y225552D03*
X2082566Y225552D03*
X172954Y415544D03*
X182646Y415544D03*
X363454Y415544D03*
X373146Y415544D03*
X552938Y415544D03*
X562630Y415544D03*
X742930Y415544D03*
X752622Y415544D03*
X932922Y415544D03*
X942614Y415544D03*
X552938Y35560D03*
X562630Y35560D03*
X1122914Y415544D03*
X1132606Y415544D03*
X1312906Y415544D03*
X1322598Y415544D03*
X1502898Y415544D03*
X1512590Y415544D03*
X1692890Y415544D03*
X1702582Y415544D03*
X1882882Y415544D03*
X1892574Y415544D03*
X2072874Y431800D03*
X2082566Y431800D03*
X2072874Y415544D03*
X2082566Y415544D03*
X172954Y605536D03*
X182646Y605536D03*
X363454Y605536D03*
X373146Y605536D03*
X552938Y605536D03*
X562630Y605536D03*
X742930Y35560D03*
X752622Y35560D03*
X742930Y605536D03*
X752622Y605536D03*
X932922Y605536D03*
X942614Y605536D03*
X1122914Y605536D03*
X1132606Y605536D03*
X1312906Y605536D03*
X1322598Y605536D03*
X1502898Y605536D03*
X1512590Y605536D03*
X1692890Y605536D03*
X1702582Y605536D03*
X1882882Y605536D03*
X1892574Y605536D03*
X2072874Y622300D03*
X2082566Y622300D03*
X2072874Y605536D03*
X2082566Y605536D03*
X932922Y35560D03*
X942614Y35560D03*
X1122914Y35560D03*
X1132606Y35560D03*
X1312906Y35560D03*
X1322598Y35560D03*
X1502898Y35560D03*
X1512590Y35560D03*
X1692890Y35560D03*
X1702582Y35560D03*
D12*
X172725Y88900D03*
X182875Y88900D03*
X1882653Y88900D03*
X1892803Y88900D03*
X2072645Y88900D03*
X2082795Y88900D03*
X2072645Y139700D03*
X2082795Y139700D03*
X172725Y278892D03*
X182875Y278892D03*
X362717Y278892D03*
X372867Y278892D03*
X552709Y278892D03*
X562859Y278892D03*
X742701Y278892D03*
X752851Y278892D03*
X932693Y278892D03*
X942843Y278892D03*
X1122685Y278892D03*
X1132835Y278892D03*
X1312677Y278892D03*
X1322827Y278892D03*
X362717Y88900D03*
X372867Y88900D03*
X1502669Y278892D03*
X1512819Y278892D03*
X1692661Y278892D03*
X1702811Y278892D03*
X1882653Y278892D03*
X1892803Y278892D03*
X2072645Y278892D03*
X2082795Y278892D03*
X2072645Y329692D03*
X2082795Y329692D03*
X172725Y468884D03*
X182875Y468884D03*
X362717Y468884D03*
X372867Y468884D03*
X552709Y468884D03*
X562859Y468884D03*
X742701Y468884D03*
X752851Y468884D03*
X932693Y468884D03*
X942843Y468884D03*
X552709Y88900D03*
X562859Y88900D03*
X1122685Y468884D03*
X1132835Y468884D03*
X1312677Y468884D03*
X1322827Y468884D03*
X1502669Y468884D03*
X1512819Y468884D03*
X1692661Y468884D03*
X1702811Y468884D03*
X1882653Y468884D03*
X1892803Y468884D03*
X2072645Y468884D03*
X2082795Y468884D03*
X2072645Y519684D03*
X2082795Y519684D03*
X172725Y658876D03*
X182875Y658876D03*
X362717Y658876D03*
X372867Y658876D03*
X552709Y658876D03*
X562859Y658876D03*
X742701Y88900D03*
X752851Y88900D03*
X742701Y658876D03*
X752851Y658876D03*
X932693Y658876D03*
X942843Y658876D03*
X1122685Y658876D03*
X1132835Y658876D03*
X1312677Y658876D03*
X1322827Y658876D03*
X1502669Y658876D03*
X1512819Y658876D03*
X1692661Y658876D03*
X1702811Y658876D03*
X1882653Y658876D03*
X1892803Y658876D03*
X2072645Y658876D03*
X2082795Y658876D03*
X2072645Y709676D03*
X2082795Y709676D03*
X172725Y630936D03*
X182875Y630936D03*
X932693Y88900D03*
X942843Y88900D03*
X1122685Y88900D03*
X1132835Y88900D03*
X1312677Y88900D03*
X1322827Y88900D03*
X1502669Y88900D03*
X1512819Y88900D03*
X1692661Y88900D03*
X1702811Y88900D03*
D13*
X88900Y88900D03*
D14*
X50800Y114300D03*
X114300Y139700D03*
D13*
X1798828Y88900D03*
D14*
X1760728Y114300D03*
X1824228Y139700D03*
D13*
X1988820Y88900D03*
D14*
X1950720Y114300D03*
X2014220Y139700D03*
D13*
X2178812Y88900D03*
D14*
X2140712Y114300D03*
X2204212Y139700D03*
D13*
X88900Y278892D03*
D14*
X50800Y304292D03*
X114300Y329692D03*
D13*
X278892Y278892D03*
D14*
X240792Y304292D03*
X304292Y329692D03*
D13*
X468884Y278892D03*
D14*
X430784Y304292D03*
X494284Y329692D03*
D13*
X658876Y278892D03*
D14*
X620776Y304292D03*
X684276Y329692D03*
D13*
X848868Y278892D03*
D14*
X810768Y304292D03*
X874268Y329692D03*
D13*
X1038860Y278892D03*
D14*
X1000760Y304292D03*
X1064260Y329692D03*
D13*
X1228852Y278892D03*
D14*
X1190752Y304292D03*
X1254252Y329692D03*
D13*
X278892Y88900D03*
D14*
X240792Y114300D03*
X304292Y139700D03*
D13*
X1418844Y278892D03*
D14*
X1380744Y304292D03*
X1444244Y329692D03*
D13*
X1608836Y278892D03*
D14*
X1570736Y304292D03*
X1634236Y329692D03*
D13*
X1798828Y278892D03*
D14*
X1760728Y304292D03*
X1824228Y329692D03*
D13*
X1988820Y278892D03*
D14*
X1950720Y304292D03*
X2014220Y329692D03*
D13*
X2178812Y278892D03*
D14*
X2140712Y304292D03*
X2204212Y329692D03*
D13*
X88900Y468884D03*
D14*
X50800Y494284D03*
X114300Y519684D03*
D13*
X278892Y468884D03*
D14*
X240792Y494284D03*
X304292Y519684D03*
D13*
X468884Y468884D03*
D14*
X430784Y494284D03*
X494284Y519684D03*
D13*
X658876Y468884D03*
D14*
X620776Y494284D03*
X684276Y519684D03*
D13*
X848868Y468884D03*
D14*
X810768Y494284D03*
X874268Y519684D03*
D13*
X468884Y88900D03*
D14*
X430784Y114300D03*
X494284Y139700D03*
D13*
X1038860Y468884D03*
D14*
X1000760Y494284D03*
X1064260Y519684D03*
D13*
X1228852Y468884D03*
D14*
X1190752Y494284D03*
X1254252Y519684D03*
D13*
X1418844Y468884D03*
D14*
X1380744Y494284D03*
X1444244Y519684D03*
D13*
X1608836Y468884D03*
D14*
X1570736Y494284D03*
X1634236Y519684D03*
D13*
X1798828Y468884D03*
D14*
X1760728Y494284D03*
X1824228Y519684D03*
D13*
X1988820Y468884D03*
D14*
X1950720Y494284D03*
X2014220Y519684D03*
D13*
X2178812Y468884D03*
D14*
X2140712Y494284D03*
X2204212Y519684D03*
D13*
X88900Y658876D03*
D14*
X50800Y684276D03*
X114300Y709676D03*
D13*
X278892Y658876D03*
D14*
X240792Y684276D03*
X304292Y709676D03*
D13*
X468884Y658876D03*
D14*
X430784Y684276D03*
X494284Y709676D03*
D13*
X658876Y88900D03*
D14*
X620776Y114300D03*
X684276Y139700D03*
D13*
X658876Y658876D03*
D14*
X620776Y684276D03*
X684276Y709676D03*
D13*
X848868Y658876D03*
D14*
X810768Y684276D03*
X874268Y709676D03*
D13*
X1038860Y658876D03*
D14*
X1000760Y684276D03*
X1064260Y709676D03*
D13*
X1228852Y658876D03*
D14*
X1190752Y684276D03*
X1254252Y709676D03*
D13*
X1418844Y658876D03*
D14*
X1380744Y684276D03*
X1444244Y709676D03*
D13*
X1608836Y658876D03*
D14*
X1570736Y684276D03*
X1634236Y709676D03*
D13*
X1798828Y658876D03*
D14*
X1760728Y684276D03*
X1824228Y709676D03*
D13*
X1988820Y658876D03*
D14*
X1950720Y684276D03*
X2014220Y709676D03*
D13*
X2178812Y658876D03*
D14*
X2140712Y684276D03*
X2204212Y709676D03*
D13*
X848868Y88900D03*
D14*
X810768Y114300D03*
X874268Y139700D03*
D13*
X1038860Y88900D03*
D14*
X1000760Y114300D03*
X1064260Y139700D03*
D13*
X1228852Y88900D03*
D14*
X1190752Y114300D03*
X1254252Y139700D03*
D13*
X1418844Y88900D03*
D14*
X1380744Y114300D03*
X1444244Y139700D03*
D13*
X1608836Y88900D03*
D14*
X1570736Y114300D03*
X1634236Y139700D03*
D15*
X747776Y519430D03*
X557784Y519430D03*
X367792Y519430D03*
X177800Y519430D03*
X2138680Y709930D03*
X2044700Y709930D03*
X1887728Y709930D03*
X1697736Y709930D03*
X1507744Y709930D03*
X1317752Y709930D03*
X1127760Y709930D03*
X937768Y709930D03*
X747776Y709930D03*
X557784Y709930D03*
X367792Y709930D03*
X177800Y709930D03*
X2251964Y711200D03*
X2251964Y520700D03*
X1507744Y330200D03*
X1317752Y330200D03*
X1127760Y330200D03*
X937768Y330200D03*
X747776Y330200D03*
X557784Y330200D03*
X367792Y330200D03*
X177800Y330200D03*
X2138680Y519430D03*
X2044700Y519430D03*
X1887728Y519430D03*
X1697736Y519430D03*
X1507744Y519430D03*
X1317752Y519430D03*
X1127760Y519430D03*
X937768Y519430D03*
X2138680Y139700D03*
X2044700Y139700D03*
X1887728Y139700D03*
X1697736Y139700D03*
X1507744Y139700D03*
X1317752Y139700D03*
X1127760Y139700D03*
X937768Y139700D03*
X747776Y139700D03*
X557784Y139700D03*
X367792Y139700D03*
X177800Y139700D03*
X2138680Y330200D03*
X2044700Y330200D03*
X1887728Y330200D03*
X1697736Y330200D03*
X215900Y635000D03*
D16*
X172954Y88671D02*
X172954Y35560D01*
X172954Y88671D02*
X172725Y88900D01*
X363454Y88163D02*
X363454Y35560D01*
X363454Y88163D02*
X362717Y88900D01*
X742930Y88671D02*
X742930Y35560D01*
X742930Y88671D02*
X742701Y88900D01*
X932693Y35789D02*
X932922Y35560D01*
X932693Y35789D02*
X932693Y88900D01*
X1122914Y88671D02*
X1122914Y35560D01*
X1122914Y88671D02*
X1122685Y88900D01*
X1312906Y88671D02*
X1312906Y35560D01*
X1312906Y88671D02*
X1312677Y88900D01*
X1502898Y88671D02*
X1502898Y38100D01*
X1502898Y35560D01*
X1502898Y88671D02*
X1502669Y88900D01*
X1692661Y35789D02*
X1692890Y35560D01*
X1692661Y35789D02*
X1692661Y88900D01*
X1882653Y35789D02*
X1882882Y35560D01*
X1882653Y35789D02*
X1882653Y88900D01*
X2072874Y63500D02*
X2072874Y35560D01*
X2072874Y63500D02*
X2072645Y63729D01*
X2072645Y88900D01*
X2085345Y76200D01*
X2095500Y76200D01*
X2095500Y116845D01*
X2072645Y139700D01*
X172954Y225552D02*
X172954Y226066D01*
X172954Y278663D01*
X172725Y278892D01*
X363454Y278155D02*
X363454Y225552D01*
X363454Y278155D02*
X362717Y278892D01*
X552938Y278663D02*
X552938Y225552D01*
X552938Y278663D02*
X552709Y278892D01*
X742930Y278663D02*
X742930Y225552D01*
X742930Y278663D02*
X742701Y278892D01*
X932922Y278663D02*
X932922Y225552D01*
X932922Y278663D02*
X932693Y278892D01*
X1122914Y278663D02*
X1122914Y225552D01*
X1122914Y278663D02*
X1122685Y278892D01*
X1312906Y278663D02*
X1312906Y225552D01*
X1312906Y278663D02*
X1312677Y278892D01*
X1502898Y278663D02*
X1502898Y226066D01*
X1502898Y225552D01*
X1502898Y278663D02*
X1502669Y278892D01*
X1692890Y278663D02*
X1692890Y225552D01*
X1692890Y278663D02*
X1692661Y278892D01*
X1882882Y278663D02*
X1882882Y228600D01*
X1882882Y225552D01*
X1882882Y278663D02*
X1882653Y278892D01*
X2072645Y278892D02*
X2072645Y241529D01*
X2072874Y241300D01*
X2072874Y225552D01*
X2084837Y266700D02*
X2072645Y278892D01*
X2084837Y266700D02*
X2095500Y266700D01*
X2095500Y292100D01*
X2072645Y314955D02*
X2072645Y329692D01*
X2072645Y314955D02*
X2095500Y292100D01*
X172954Y415544D02*
X172954Y468655D01*
X172725Y468884D01*
X363454Y468147D02*
X363454Y415544D01*
X363454Y468147D02*
X362717Y468884D01*
X363454Y605536D02*
X363454Y658139D01*
X362717Y658876D01*
X552938Y658647D02*
X552938Y605536D01*
X552938Y658647D02*
X552709Y658876D01*
X552938Y468655D02*
X552938Y415544D01*
X552938Y468655D02*
X552709Y468884D01*
X742930Y605536D02*
X742930Y658647D01*
X742701Y658876D01*
X742930Y468655D02*
X742930Y415544D01*
X742930Y468655D02*
X742701Y468884D01*
X932922Y468655D02*
X932922Y415544D01*
X932922Y468655D02*
X932693Y468884D01*
X932922Y605536D02*
X932922Y658647D01*
X932693Y658876D01*
X1122914Y468655D02*
X1122914Y415544D01*
X1122914Y468655D02*
X1122685Y468884D01*
X1122914Y605536D02*
X1122914Y658647D01*
X1122685Y658876D01*
X1312906Y658647D02*
X1312906Y605536D01*
X1312906Y658647D02*
X1312677Y658876D01*
X1312906Y468655D02*
X1312906Y415544D01*
X1312906Y468655D02*
X1312677Y468884D01*
X1502898Y468655D02*
X1502898Y415544D01*
X1502898Y468655D02*
X1502669Y468884D01*
X1502898Y605536D02*
X1502898Y658647D01*
X1502669Y658876D01*
X1692890Y658647D02*
X1692890Y605536D01*
X1692890Y658647D02*
X1692661Y658876D01*
X1692890Y468655D02*
X1692890Y415544D01*
X1692890Y468655D02*
X1692661Y468884D01*
X1882882Y468655D02*
X1882882Y415544D01*
X1882882Y468655D02*
X1882653Y468884D01*
X1882653Y605765D02*
X1882653Y658876D01*
X1882653Y605765D02*
X1882882Y605536D01*
X2072874Y431800D02*
X2072874Y415544D01*
X2072874Y431800D02*
X2072645Y432029D01*
X2072645Y468884D01*
X2072874Y605536D02*
X2072874Y622300D01*
X2072645Y622529D01*
X2072645Y658876D01*
X2072645Y468884D02*
X2084329Y457200D01*
X2095500Y457200D01*
X2072645Y505455D02*
X2072645Y519684D01*
X2083821Y647700D02*
X2072645Y658876D01*
X2083821Y647700D02*
X2095500Y647700D01*
X2108200Y660400D01*
X2108200Y673100D01*
X2072645Y708655D01*
X2072645Y709676D01*
X2095500Y482600D02*
X2095500Y457200D01*
X2095500Y482600D02*
X2072645Y505455D01*
X194592Y627174D02*
X172954Y605536D01*
X179253Y653370D02*
X173747Y658876D01*
X172725Y658876D01*
X194592Y627174D02*
X219142Y627174D01*
X223726Y631758D01*
X223726Y638242D01*
X208598Y653370D01*
X179253Y653370D01*
X172725Y658876D02*
X127515Y658876D01*
X82375Y613736D01*
X80700Y613736D01*
X178899Y600105D02*
X186393Y600105D01*
X173468Y605536D02*
X172954Y605536D01*
X173468Y605536D02*
X178899Y600105D01*
X186393Y600105D02*
X188910Y602622D01*
X279400Y602622D01*
X477084Y602622D02*
X477084Y597336D01*
X477084Y602622D02*
X380537Y602622D01*
X378020Y600105D01*
X368886Y600105D01*
X363454Y605536D01*
X287092Y597336D02*
X284686Y597336D01*
X279400Y602622D01*
X287092Y597336D02*
X287353Y597336D01*
X477084Y597336D02*
X477084Y592050D01*
X292639Y592050D02*
X287353Y597336D01*
X292639Y592050D02*
X477084Y592050D01*
X667076Y597336D02*
X667076Y602622D01*
X553452Y605536D02*
X552938Y605536D01*
X558883Y600105D02*
X566377Y600105D01*
X558883Y600105D02*
X553452Y605536D01*
X568894Y602622D02*
X667076Y602622D01*
X568894Y602622D02*
X566377Y600105D01*
X836721Y602622D02*
X857068Y602622D01*
X857068Y597336D01*
X836721Y602622D02*
X834204Y600105D01*
X748362Y600105D01*
X742930Y605536D01*
X1024196Y600105D02*
X1026713Y602622D01*
X1024196Y600105D02*
X938354Y600105D01*
X932922Y605536D01*
X1047060Y602622D02*
X1047060Y597336D01*
X1047060Y602622D02*
X1026713Y602622D01*
X1237052Y602622D02*
X1237052Y597336D01*
X1237052Y602622D02*
X1216705Y602622D01*
X1214188Y600105D01*
X1128346Y600105D01*
X1122914Y605536D01*
X667076Y597336D02*
X661790Y592050D01*
X482370Y592050D01*
X477084Y597336D01*
X851782Y592050D02*
X857068Y597336D01*
X672362Y592050D02*
X667076Y597336D01*
X672362Y592050D02*
X851782Y592050D01*
X1041774Y592050D02*
X1047060Y597336D01*
X862354Y592050D02*
X857068Y597336D01*
X862354Y592050D02*
X1041774Y592050D01*
X1047060Y597336D02*
X1052346Y592050D01*
X1231766Y592050D01*
X1237052Y597336D01*
X1427044Y597336D02*
X1427044Y602622D01*
X1328862Y602622D01*
X1326345Y600105D01*
X1318338Y600105D01*
X1312906Y605536D01*
X1419877Y597336D02*
X1427044Y597336D01*
X1419877Y597336D02*
X1414591Y592050D01*
X1611750Y592050D02*
X1617036Y597336D01*
X1617036Y602622D01*
X1520489Y602622D01*
X1518251Y600384D01*
X1516616Y600384D01*
X1239853Y597336D02*
X1237052Y597336D01*
X1239853Y597336D02*
X1245139Y592050D01*
X1414591Y592050D01*
X1427044Y597336D02*
X1432564Y597336D01*
X1437850Y592050D01*
X1611750Y592050D01*
X1516616Y600384D02*
X1516337Y600105D01*
X1508330Y600105D02*
X1502898Y605536D01*
X1508330Y600105D02*
X1516337Y600105D01*
X1692890Y605536D02*
X1698322Y600105D01*
X1800496Y590804D02*
X1807028Y597336D01*
X1811353Y597336D02*
X1816639Y592050D01*
X1888314Y600105D02*
X1974156Y600105D01*
X1888314Y600105D02*
X1882882Y605536D01*
X1991734Y592050D02*
X1997020Y597336D01*
X1991734Y592050D02*
X1816639Y592050D01*
X1811353Y597336D02*
X1807028Y597336D01*
X2179845Y597336D02*
X2187012Y597336D01*
X2187012Y602622D01*
X2088830Y602622D01*
X2086313Y600105D01*
X2078306Y600105D01*
X2072874Y605536D01*
X2187012Y597336D02*
X2251964Y662288D01*
X2251964Y711200D01*
X2073667Y519684D02*
X2072645Y519684D01*
X2073667Y519684D02*
X2079173Y525190D01*
X2114866Y525190D02*
X2187012Y597336D01*
X2114866Y525190D02*
X2079173Y525190D01*
X2073388Y415544D02*
X2072874Y415544D01*
X2073388Y415544D02*
X2078819Y410113D01*
X2231390Y454921D02*
X2231390Y352108D01*
X2198610Y343218D02*
X2198292Y342900D01*
X2082800Y342900D01*
X2198610Y343218D02*
X2222500Y343218D01*
X2082800Y342900D02*
X2072645Y332745D01*
X2072645Y329692D01*
X2072874Y225552D02*
X2073388Y225552D01*
X2078819Y220121D01*
X2231390Y264929D02*
X2231390Y161290D01*
X2223326Y153226D01*
X2073667Y139700D02*
X2072645Y139700D01*
X2087192Y153226D02*
X2223326Y153226D01*
X2087192Y153226D02*
X2073667Y139700D01*
X2231390Y264929D02*
X2178819Y317500D01*
X274639Y402058D02*
X102386Y402058D01*
X97100Y407344D01*
X274639Y402058D02*
X279925Y407344D01*
X287092Y407344D01*
X279925Y407344D02*
X274639Y412630D01*
X188910Y412630D01*
X186393Y410113D01*
X178386Y410113D01*
X172954Y415544D01*
X464631Y402058D02*
X469917Y407344D01*
X477084Y407344D01*
X469917Y407344D02*
X464631Y412630D01*
X379410Y412630D01*
X376893Y410113D01*
X368886Y410113D01*
X363454Y415544D01*
X654623Y402058D02*
X659909Y407344D01*
X484149Y407344D02*
X477084Y407344D01*
X484149Y407344D02*
X489435Y402058D01*
X654623Y402058D01*
X654623Y412630D02*
X646729Y412630D01*
X659909Y407344D02*
X667076Y407344D01*
X643547Y409448D02*
X559034Y409448D01*
X654623Y412630D02*
X659909Y407344D01*
X646729Y412630D02*
X643547Y409448D01*
X559034Y409448D02*
X552938Y415544D01*
X667076Y407344D02*
X667845Y407344D01*
X844615Y402058D02*
X849901Y407344D01*
X673131Y402058D02*
X667845Y407344D01*
X673131Y402058D02*
X844615Y402058D01*
X849901Y407344D02*
X857068Y407344D01*
X834204Y410113D02*
X748362Y410113D01*
X742930Y415544D01*
X836721Y412630D02*
X844615Y412630D01*
X849901Y407344D01*
X836721Y412630D02*
X834204Y410113D01*
X1034607Y402058D02*
X1039893Y407344D01*
X858345Y407344D02*
X857068Y407344D01*
X858345Y407344D02*
X863631Y402058D01*
X1034607Y402058D01*
X1034607Y412630D02*
X1026713Y412630D01*
X1039893Y407344D02*
X1047060Y407344D01*
X1039893Y407344D02*
X1034607Y412630D01*
X1026713Y412630D02*
X1024196Y410113D01*
X938354Y410113D01*
X932922Y415544D01*
X1224599Y402058D02*
X1229885Y407344D01*
X1048845Y407344D02*
X1047060Y407344D01*
X1048845Y407344D02*
X1054131Y402058D01*
X1224599Y402058D01*
X1224599Y412630D02*
X1216705Y412630D01*
X1229885Y407344D02*
X1237052Y407344D01*
X1229885Y407344D02*
X1224599Y412630D01*
X1216705Y412630D02*
X1214188Y410113D01*
X1128346Y410113D01*
X1122914Y415544D01*
X1414591Y402058D02*
X1419877Y407344D01*
X1239345Y407344D02*
X1237052Y407344D01*
X1239345Y407344D02*
X1244631Y402058D01*
X1414591Y402058D01*
X1414591Y412630D02*
X1406697Y412630D01*
X1419877Y407344D02*
X1427044Y407344D01*
X1419877Y407344D02*
X1414591Y412630D01*
X1406697Y412630D02*
X1404180Y410113D01*
X1318338Y410113D01*
X1312906Y415544D01*
X1427044Y407344D02*
X1429845Y407344D01*
X1604583Y402058D02*
X1609869Y407344D01*
X1604583Y402058D02*
X1435131Y402058D01*
X1429845Y407344D01*
X1609869Y407344D02*
X1617036Y407344D01*
X1594172Y410113D02*
X1508330Y410113D01*
X1502898Y415544D01*
X1596689Y412630D02*
X1604583Y412630D01*
X1609869Y407344D01*
X1596689Y412630D02*
X1594172Y410113D01*
X1617036Y407344D02*
X1624101Y407344D01*
X1794575Y402058D02*
X1799861Y407344D01*
X1629387Y402058D02*
X1624101Y407344D01*
X1629387Y402058D02*
X1794575Y402058D01*
X1799861Y407344D02*
X1807028Y407344D01*
X1698322Y410113D02*
X1692890Y415544D01*
X1786681Y412630D02*
X1794575Y412630D01*
X1799861Y407344D01*
X1786681Y412630D02*
X1784164Y410113D01*
X1698322Y410113D01*
X1807028Y407344D02*
X1810845Y407344D01*
X1984567Y402058D02*
X1989853Y407344D01*
X1984567Y402058D02*
X1816131Y402058D01*
X1810845Y407344D01*
X1976673Y412630D02*
X1984567Y412630D01*
X1989853Y407344D02*
X1997020Y407344D01*
X1989853Y407344D02*
X1984567Y412630D01*
X1976673Y412630D02*
X1974156Y410113D01*
X1888314Y410113D01*
X1882882Y415544D01*
X1997020Y407344D02*
X2004085Y407344D01*
X2174559Y402058D02*
X2179845Y407344D01*
X2009371Y402058D02*
X2004085Y407344D01*
X2009371Y402058D02*
X2174559Y402058D01*
X2179845Y407344D02*
X2187012Y407344D01*
X2179845Y407344D02*
X2174559Y412630D01*
X2086313Y410113D02*
X2078819Y410113D01*
X2166665Y412630D02*
X2174559Y412630D01*
X2166665Y412630D02*
X2166531Y412496D01*
X2088696Y412496D01*
X2086313Y410113D01*
X2084329Y508000D02*
X2072645Y519684D01*
X2084329Y508000D02*
X2178311Y508000D01*
X2231390Y454921D01*
X102022Y217352D02*
X97100Y217352D01*
X279925Y217352D02*
X287092Y217352D01*
X109570Y209804D02*
X102022Y217352D01*
X109570Y209804D02*
X272377Y209804D01*
X279925Y217352D01*
X178899Y220121D02*
X172954Y226066D01*
X266745Y222638D02*
X274639Y222638D01*
X279925Y217352D01*
X464631Y222638D02*
X469917Y217352D01*
X646729Y222638D02*
X654623Y222638D01*
X646729Y222638D02*
X646595Y222504D01*
X654623Y222638D02*
X659909Y217352D01*
X836721Y222638D02*
X844615Y222638D01*
X849901Y217352D01*
X939526Y218948D02*
X1023023Y218948D01*
X939526Y218948D02*
X932922Y225552D01*
X1026713Y222638D02*
X1034607Y222638D01*
X1039893Y217352D01*
X1026713Y222638D02*
X1023023Y218948D01*
X1216705Y222638D02*
X1224599Y222638D01*
X1229885Y217352D01*
X1406697Y222638D02*
X1414591Y222638D01*
X1419877Y217352D01*
X1406697Y222638D02*
X1404180Y220121D01*
X1318338Y220121D01*
X1312906Y225552D01*
X1604583Y212066D02*
X1609869Y217352D01*
X1604583Y222638D02*
X1596689Y222638D01*
X1609869Y217352D02*
X1617036Y217352D01*
X1592999Y218948D02*
X1510016Y218948D01*
X1604583Y222638D02*
X1609869Y217352D01*
X1596689Y222638D02*
X1592999Y218948D01*
X1510016Y218948D02*
X1502898Y226066D01*
X1794575Y222638D02*
X1799861Y217352D01*
X1794575Y222638D02*
X1708846Y222638D01*
X1706329Y220121D01*
X1698322Y220121D01*
X1692890Y225552D01*
X1976673Y222638D02*
X1984567Y222638D01*
X1888827Y220121D02*
X1887488Y221460D01*
X1887488Y223994D01*
X1882882Y228600D01*
X1984567Y222638D02*
X1989853Y217352D01*
X1976673Y222638D02*
X1974156Y220121D01*
X1888827Y220121D01*
X2166665Y222638D02*
X2174559Y222638D01*
X2179845Y217352D01*
X2120900Y289326D02*
X2072874Y241300D01*
X2120900Y289326D02*
X2120900Y304800D01*
X2146315Y317818D02*
X2146632Y317500D01*
X2133918Y317818D02*
X2120900Y304800D01*
X2133918Y317818D02*
X2146315Y317818D01*
X2146632Y317500D02*
X2178819Y317500D01*
X274639Y32646D02*
X266745Y32646D01*
X274639Y32646D02*
X279925Y27360D01*
X464631Y22074D02*
X469917Y27360D01*
X477084Y27360D01*
X452539Y28448D02*
X370566Y28448D01*
X363454Y35560D01*
X456737Y32646D02*
X464631Y32646D01*
X469917Y27360D01*
X456737Y32646D02*
X452539Y28448D01*
X654623Y32646D02*
X659909Y27360D01*
X836721Y32646D02*
X844615Y32646D01*
X832523Y28448D02*
X749300Y28448D01*
X844615Y32646D02*
X849901Y27360D01*
X836721Y32646D02*
X832523Y28448D01*
X749300Y28448D02*
X742930Y34818D01*
X742930Y35560D01*
X1039893Y27360D02*
X1047060Y27360D01*
X1034607Y32646D02*
X1026713Y32646D01*
X1034607Y32646D02*
X1039893Y27360D01*
X1130026Y28448D02*
X1212507Y28448D01*
X1130026Y28448D02*
X1122914Y35560D01*
X1216705Y32646D02*
X1224599Y32646D01*
X1229885Y27360D01*
X1216705Y32646D02*
X1212507Y28448D01*
X1414591Y32646D02*
X1419877Y27360D01*
X1596689Y22074D02*
X1604583Y22074D01*
X1609869Y27360D01*
X1596689Y22074D02*
X1596411Y22352D01*
X1508843Y30129D02*
X1507504Y31468D01*
X1507504Y33494D01*
X1502898Y38100D01*
X1609869Y27360D02*
X1617036Y27360D01*
X1594172Y30129D02*
X1508843Y30129D01*
X1596689Y32646D02*
X1604583Y32646D01*
X1609869Y27360D01*
X1596689Y32646D02*
X1594172Y30129D01*
X1700002Y28448D02*
X1782483Y28448D01*
X1700002Y28448D02*
X1692890Y35560D01*
X1786681Y32646D02*
X1794575Y32646D01*
X1799861Y27360D01*
X1786681Y32646D02*
X1782483Y28448D01*
X1976673Y32646D02*
X1984567Y32646D01*
X1989853Y27360D01*
X1976673Y32646D02*
X1974156Y30129D01*
X1888314Y30129D01*
X1882882Y35560D01*
X2166665Y32646D02*
X2174559Y32646D01*
X2179845Y27360D01*
X290735Y402058D02*
X287092Y405701D01*
X287092Y407344D01*
X290735Y402058D02*
X464631Y402058D01*
X287092Y217352D02*
X294640Y209804D01*
X456737Y222638D02*
X464631Y222638D01*
X456737Y222638D02*
X454220Y220121D01*
X368886Y220121D01*
X363454Y225552D01*
X477084Y217352D02*
X484632Y209804D01*
X834204Y220121D02*
X836721Y222638D01*
X834204Y220121D02*
X748362Y220121D01*
X742930Y225552D01*
X672362Y212066D02*
X667076Y217352D01*
X857068Y217352D02*
X862354Y212066D01*
X1214188Y220121D02*
X1216705Y222638D01*
X1214188Y220121D02*
X1128346Y220121D01*
X1122914Y225552D01*
X1052346Y212066D02*
X1047060Y217352D01*
X1237052Y217352D02*
X1242338Y212066D01*
X1617036Y217352D02*
X1622322Y212066D01*
X1807028Y217352D02*
X1812314Y212066D01*
X2164148Y220121D02*
X2166665Y222638D01*
X2164148Y220121D02*
X2078819Y220121D01*
X2002306Y212066D02*
X1997020Y217352D01*
X2166665Y32646D02*
X2164148Y30129D01*
X2078306Y30129D01*
X2072874Y35560D01*
X2002306Y22074D02*
X1997020Y27360D01*
X1812314Y22074D02*
X1807028Y27360D01*
X1622322Y22074D02*
X1617036Y27360D01*
X1414591Y32646D02*
X1328862Y32646D01*
X1326345Y30129D01*
X1318338Y30129D01*
X1312906Y35560D01*
X1419877Y27360D02*
X1427044Y27360D01*
X1419877Y27360D02*
X1414591Y22074D01*
X1238329Y27360D02*
X1237052Y27360D01*
X1243615Y22074D02*
X1414591Y22074D01*
X1243615Y22074D02*
X1238329Y27360D01*
X1052346Y22074D02*
X1047060Y27360D01*
X1052346Y22074D02*
X1224599Y22074D01*
X1229885Y27360D02*
X1237052Y27360D01*
X1229885Y27360D02*
X1224599Y22074D01*
X1026713Y32646D02*
X1024196Y30129D01*
X938354Y30129D01*
X932922Y35560D01*
X1034607Y22074D02*
X1039893Y27360D01*
X672362Y22074D02*
X667076Y27360D01*
X672362Y22074D02*
X844615Y22074D01*
X849901Y27360D02*
X857068Y27360D01*
X849901Y27360D02*
X844615Y22074D01*
X654623Y32646D02*
X568894Y32646D01*
X566377Y30129D01*
X558370Y30129D01*
X552938Y35560D01*
X482370Y22074D02*
X477084Y27360D01*
X482370Y22074D02*
X654623Y22074D01*
X659909Y27360D02*
X667076Y27360D01*
X659909Y27360D02*
X654623Y22074D01*
X266745Y32646D02*
X265595Y31496D01*
X187760Y31496D01*
X186393Y30129D01*
X178386Y30129D01*
X172954Y35560D01*
X102386Y22074D02*
X97100Y27360D01*
X279925Y27360D02*
X287092Y27360D01*
X279925Y27360D02*
X274639Y22074D01*
X102386Y22074D01*
X1427044Y217352D02*
X1429337Y217352D01*
X1434623Y212066D01*
X1604583Y212066D01*
X1428829Y27360D02*
X1427044Y27360D01*
X1428829Y27360D02*
X1433837Y22352D01*
X1596411Y22352D01*
X857329Y27360D02*
X857068Y27360D01*
X857329Y27360D02*
X862615Y22074D01*
X1034607Y22074D01*
X291115Y22074D02*
X287092Y26097D01*
X287092Y27360D01*
X291115Y22074D02*
X464631Y22074D01*
X1617036Y597336D02*
X1620853Y597336D01*
X1627385Y590804D01*
X1800496Y590804D01*
X1997020Y597336D02*
X2001853Y597336D01*
X2174559Y592050D02*
X2179845Y597336D01*
X2007139Y592050D02*
X2001853Y597336D01*
X2007139Y592050D02*
X2174559Y592050D01*
X266745Y222638D02*
X264228Y220121D01*
X178899Y220121D01*
X568760Y222504D02*
X646595Y222504D01*
X568760Y222504D02*
X566377Y220121D01*
X558370Y220121D01*
X552938Y225552D01*
X672362Y212066D02*
X844615Y212066D01*
X849901Y217352D02*
X857068Y217352D01*
X849901Y217352D02*
X844615Y212066D01*
X862354Y212066D02*
X1034607Y212066D01*
X1039893Y217352D02*
X1047060Y217352D01*
X1039893Y217352D02*
X1034607Y212066D01*
X1229885Y217352D02*
X1237052Y217352D01*
X1229885Y217352D02*
X1224599Y212066D01*
X1052346Y212066D01*
X1242338Y212066D02*
X1414591Y212066D01*
X1419877Y217352D02*
X1427044Y217352D01*
X1419877Y217352D02*
X1414591Y212066D01*
X1622322Y212066D02*
X1794575Y212066D01*
X1799861Y217352D02*
X1807028Y217352D01*
X1799861Y217352D02*
X1794575Y212066D01*
X1812314Y212066D02*
X1984567Y212066D01*
X1989853Y217352D02*
X1997020Y217352D01*
X1989853Y217352D02*
X1984567Y212066D01*
X2002306Y212066D02*
X2174559Y212066D01*
X2179845Y217352D02*
X2187012Y217352D01*
X2179845Y217352D02*
X2174559Y212066D01*
X2222500Y343218D02*
X2231390Y352108D01*
X2174559Y22074D02*
X2002306Y22074D01*
X2179845Y27360D02*
X2187012Y27360D01*
X2179845Y27360D02*
X2174559Y22074D01*
X1984567Y22074D02*
X1812314Y22074D01*
X1989853Y27360D02*
X1997020Y27360D01*
X1989853Y27360D02*
X1984567Y22074D01*
X1794575Y22074D02*
X1622322Y22074D01*
X1799861Y27360D02*
X1807028Y27360D01*
X1799861Y27360D02*
X1794575Y22074D01*
X477084Y217352D02*
X469917Y217352D01*
X462369Y209804D02*
X294640Y209804D01*
X462369Y209804D02*
X469917Y217352D01*
X659909Y217352D02*
X667076Y217352D01*
X652361Y209804D02*
X484632Y209804D01*
X652361Y209804D02*
X659909Y217352D01*
X1698322Y600105D02*
X1781205Y600105D01*
X1801742Y602622D02*
X1807028Y597336D01*
X1801742Y602622D02*
X1783722Y602622D01*
X1781205Y600105D01*
X552938Y88671D02*
X552709Y88900D01*
X552938Y88671D02*
X552938Y35560D01*
X1974156Y600105D02*
X1976673Y602622D01*
X1991734Y602622D02*
X1997020Y597336D01*
X1991734Y602622D02*
X1976673Y602622D01*
X747776Y519430D02*
X684530Y519430D01*
X684276Y519684D01*
X752851Y469429D02*
X752851Y468884D01*
X752851Y469429D02*
X747776Y474504D01*
X747776Y519430D01*
X557784Y519430D02*
X494538Y519430D01*
X494284Y519684D01*
X562859Y469429D02*
X562859Y468884D01*
X562859Y469429D02*
X557784Y474504D01*
X557784Y519430D01*
X367792Y519430D02*
X304546Y519430D01*
X304292Y519684D01*
X372867Y469429D02*
X372867Y468884D01*
X372867Y469429D02*
X367792Y474504D01*
X367792Y519430D01*
X177800Y519430D02*
X114554Y519430D01*
X114300Y519684D01*
X182875Y469429D02*
X182875Y468884D01*
X182875Y469429D02*
X177800Y474504D01*
X177800Y519430D01*
X2138934Y709676D02*
X2204212Y709676D01*
X2138934Y709676D02*
X2138680Y709930D01*
X2083049Y709930D01*
X2082795Y709676D01*
X2044700Y709930D02*
X2014474Y709930D01*
X2014220Y709676D01*
X2082795Y671835D02*
X2082795Y658876D01*
X2082795Y671835D02*
X2044700Y709930D01*
X1887728Y709930D02*
X1824482Y709930D01*
X1824228Y709676D01*
X1892803Y659421D02*
X1892803Y658876D01*
X1892803Y659421D02*
X1887728Y664496D01*
X1887728Y709930D01*
X1697736Y709930D02*
X1634490Y709930D01*
X1634236Y709676D01*
X1702811Y659421D02*
X1702811Y658876D01*
X1702811Y659421D02*
X1697736Y664496D01*
X1697736Y709930D01*
X1507744Y709930D02*
X1444498Y709930D01*
X1444244Y709676D01*
X1512819Y659421D02*
X1512819Y658876D01*
X1512819Y659421D02*
X1507744Y664496D01*
X1507744Y709930D01*
X1317752Y709930D02*
X1254506Y709930D01*
X1254252Y709676D01*
X1322827Y659421D02*
X1322827Y658876D01*
X1322827Y659421D02*
X1317752Y664496D01*
X1317752Y709930D01*
X1127760Y709930D02*
X1064514Y709930D01*
X1064260Y709676D01*
X1132835Y659421D02*
X1132835Y658876D01*
X1132835Y659421D02*
X1127760Y664496D01*
X1127760Y709930D01*
X937768Y709930D02*
X874522Y709930D01*
X874268Y709676D01*
X942843Y659421D02*
X942843Y658876D01*
X942843Y659421D02*
X937768Y664496D01*
X937768Y709930D01*
X747776Y709930D02*
X684530Y709930D01*
X684276Y709676D01*
X752851Y659421D02*
X752851Y658876D01*
X752851Y659421D02*
X747776Y664496D01*
X747776Y709930D01*
X557784Y709930D02*
X494538Y709930D01*
X494284Y709676D01*
X562859Y659421D02*
X562859Y658876D01*
X562859Y659421D02*
X557784Y664496D01*
X557784Y709930D01*
X367792Y709930D02*
X304546Y709930D01*
X304292Y709676D01*
X372867Y659421D02*
X372867Y658876D01*
X372867Y659421D02*
X367792Y664496D01*
X367792Y709930D01*
X114554Y709930D02*
X114300Y709676D01*
X114554Y709930D02*
X177800Y709930D01*
X182875Y659421D02*
X182875Y658876D01*
X182875Y659421D02*
X177800Y664496D01*
X177800Y709930D01*
X1461511Y330200D02*
X1507744Y330200D01*
X1460500Y330200D02*
X1444752Y330200D01*
X1444244Y329692D01*
X1461511Y330200D02*
X1512819Y278892D01*
X1461511Y330200D02*
X1460500Y330200D01*
X1317752Y330200D02*
X1271519Y330200D01*
X1270000Y330200D02*
X1254760Y330200D01*
X1254252Y329692D01*
X1271519Y330200D02*
X1322827Y278892D01*
X1271519Y330200D02*
X1270000Y330200D01*
X1127760Y330200D02*
X1081527Y330200D01*
X1079500Y330200D02*
X1064768Y330200D01*
X1064260Y329692D01*
X1081527Y330200D02*
X1132835Y278892D01*
X1081527Y330200D02*
X1079500Y330200D01*
X937768Y330200D02*
X891535Y330200D01*
X889000Y330200D02*
X874776Y330200D01*
X874268Y329692D01*
X891535Y330200D02*
X942843Y278892D01*
X891535Y330200D02*
X889000Y330200D01*
X747776Y330200D02*
X701543Y330200D01*
X684784Y330200D01*
X684276Y329692D01*
X701543Y330200D02*
X752851Y278892D01*
X367792Y330200D02*
X321559Y330200D01*
X317500Y330200D02*
X304800Y330200D01*
X304292Y329692D01*
X321559Y330200D02*
X372867Y278892D01*
X321559Y330200D02*
X317500Y330200D01*
X511551Y330200D02*
X557784Y330200D01*
X508000Y330200D02*
X494792Y330200D01*
X494284Y329692D01*
X511551Y330200D02*
X562859Y278892D01*
X511551Y330200D02*
X508000Y330200D01*
X114808Y330200D02*
X114300Y329692D01*
X114808Y330200D02*
X127000Y330200D01*
X131567Y330200D02*
X177800Y330200D01*
X131567Y330200D02*
X182875Y278892D01*
X131567Y330200D02*
X127000Y330200D01*
X2083049Y519430D02*
X2138680Y519430D01*
X2083049Y519430D02*
X2082795Y519684D01*
X2138934Y519684D02*
X2204212Y519684D01*
X2138934Y519684D02*
X2138680Y519430D01*
X2044700Y519430D02*
X2014474Y519430D01*
X2014220Y519684D01*
X2082795Y481335D02*
X2082795Y468884D01*
X2082795Y481335D02*
X2044700Y519430D01*
X1887728Y519430D02*
X1824482Y519430D01*
X1824228Y519684D01*
X1892803Y469429D02*
X1892803Y468884D01*
X1892803Y469429D02*
X1887728Y474504D01*
X1887728Y519430D01*
X1697736Y519430D02*
X1634490Y519430D01*
X1634236Y519684D01*
X1702811Y469429D02*
X1702811Y468884D01*
X1702811Y469429D02*
X1697736Y474504D01*
X1697736Y519430D01*
X1507744Y519430D02*
X1444498Y519430D01*
X1444244Y519684D01*
X1512819Y469429D02*
X1512819Y468884D01*
X1512819Y469429D02*
X1507744Y474504D01*
X1507744Y519430D01*
X1317752Y519430D02*
X1254506Y519430D01*
X1254252Y519684D01*
X1322827Y469429D02*
X1322827Y468884D01*
X1322827Y469429D02*
X1317752Y474504D01*
X1317752Y519430D01*
X1127760Y519430D02*
X1064514Y519430D01*
X1064260Y519684D01*
X1132835Y469429D02*
X1132835Y468884D01*
X1132835Y469429D02*
X1127760Y474504D01*
X1127760Y519430D01*
X937768Y519430D02*
X874522Y519430D01*
X874268Y519684D01*
X942843Y469429D02*
X942843Y468884D01*
X942843Y469429D02*
X937768Y474504D01*
X937768Y519430D01*
X2082795Y139700D02*
X2133600Y139700D01*
X2138680Y139700D01*
X2204212Y139700D01*
X2082795Y88900D02*
X2031995Y139700D01*
X2014220Y139700D01*
X2031995Y139700D02*
X2044700Y139700D01*
X1892803Y88900D02*
X1891781Y88900D01*
X1840981Y139700D01*
X1824228Y139700D01*
X1887728Y139700D01*
X1702811Y88900D02*
X1701789Y88900D01*
X1650989Y139700D01*
X1634236Y139700D01*
X1697736Y139700D01*
X1512819Y88900D02*
X1462019Y139700D01*
X1444244Y139700D01*
X1462019Y139700D02*
X1507744Y139700D01*
X1322827Y88900D02*
X1272027Y139700D01*
X1254252Y139700D01*
X1272027Y139700D02*
X1317752Y139700D01*
X1132835Y88900D02*
X1082035Y139700D01*
X1079500Y139700D01*
X1064260Y139700D01*
X1082035Y139700D02*
X1127760Y139700D01*
X942843Y88900D02*
X892043Y139700D01*
X874268Y139700D01*
X892043Y139700D02*
X937768Y139700D01*
X752851Y88900D02*
X751829Y88900D01*
X701029Y139700D01*
X684276Y139700D01*
X747776Y139700D01*
X372867Y88900D02*
X322067Y139700D01*
X367792Y139700D01*
X304292Y139700D01*
X131053Y139700D02*
X114300Y139700D01*
X131053Y139700D02*
X177800Y139700D01*
X181853Y88900D02*
X182875Y88900D01*
X181853Y88900D02*
X131053Y139700D01*
X2139188Y329692D02*
X2204212Y329692D01*
X2139188Y329692D02*
X2138680Y330200D01*
X2139188Y329692D02*
X2082795Y329692D01*
X2044700Y330200D02*
X2014728Y330200D01*
X2014220Y329692D01*
X2044700Y316987D02*
X2082795Y278892D01*
X2044700Y316987D02*
X2044700Y330200D01*
X1887728Y330200D02*
X1841500Y330200D01*
X1824736Y330200D01*
X1824228Y329692D01*
X1841500Y330195D02*
X1892803Y278892D01*
X1841500Y330195D02*
X1841500Y330200D01*
X1697736Y330200D02*
X1651503Y330200D01*
X1651000Y330200D02*
X1634744Y330200D01*
X1634236Y329692D01*
X1651503Y330200D02*
X1702811Y278892D01*
X1651503Y330200D02*
X1651000Y330200D01*
X562859Y88900D02*
X512059Y139700D01*
X494284Y139700D01*
X512059Y139700D02*
X557784Y139700D01*
X240792Y93706D02*
X182646Y35560D01*
X240792Y93706D02*
X240792Y114300D01*
X373146Y35560D02*
X430784Y93198D01*
X430784Y114300D01*
X568335Y41265D02*
X620776Y93706D01*
X568335Y41265D02*
X562630Y35560D01*
X620776Y93706D02*
X620776Y114300D01*
X752622Y35560D02*
X810768Y93706D01*
X810768Y114300D01*
X1000760Y114300D02*
X1000760Y93706D01*
X1322598Y35560D02*
X1322969Y35931D01*
X1380744Y93706D01*
X1380744Y114300D01*
X1512590Y35560D02*
X1570736Y93706D01*
X1570736Y114300D01*
X1702582Y35560D02*
X1760728Y93706D01*
X1760728Y114300D01*
X1893707Y36693D02*
X1950720Y93706D01*
X1893707Y36693D02*
X1892574Y35560D01*
X1950720Y93706D02*
X1950720Y114300D01*
X2082566Y35560D02*
X2083953Y36947D01*
X2140712Y93706D01*
X2140712Y114300D01*
X2082566Y63500D02*
X2082566Y35560D01*
X1000760Y93706D02*
X942614Y35560D01*
X1132606Y35560D02*
X1190752Y93706D01*
X1190752Y114300D01*
X240792Y283698D02*
X182646Y225552D01*
X240792Y283698D02*
X240792Y304292D01*
X373146Y225552D02*
X430784Y283190D01*
X430784Y304292D01*
X562630Y225552D02*
X620776Y283698D01*
X620776Y304292D01*
X752622Y225552D02*
X810768Y283698D01*
X810768Y304292D01*
X942614Y225552D02*
X1000760Y283698D01*
X1000760Y304292D01*
X1132606Y225552D02*
X1190752Y283698D01*
X1190752Y304292D01*
X1323223Y226177D02*
X1380744Y283698D01*
X1323223Y226177D02*
X1322598Y225552D01*
X1380744Y283698D02*
X1380744Y304292D01*
X1513469Y226431D02*
X1570736Y283698D01*
X1513469Y226431D02*
X1512590Y225552D01*
X1570736Y283698D02*
X1570736Y304292D01*
X1703715Y226685D02*
X1760728Y283698D01*
X1703715Y226685D02*
X1702582Y225552D01*
X1760728Y283698D02*
X1760728Y304292D01*
X1893961Y226939D02*
X1950720Y283698D01*
X1893961Y226939D02*
X1892574Y225552D01*
X1950720Y283698D02*
X1950720Y304292D01*
X2082566Y225552D02*
X2140712Y283698D01*
X2140712Y304292D01*
X2082566Y241300D02*
X2082566Y225552D01*
X240792Y473690D02*
X182646Y415544D01*
X240792Y473690D02*
X240792Y494284D01*
X373146Y415544D02*
X430784Y473182D01*
X430784Y494284D01*
X379105Y607705D02*
X430784Y663174D01*
X430784Y684276D01*
X620776Y473690D02*
X562630Y415544D01*
X620776Y473690D02*
X620776Y494284D01*
X562630Y605536D02*
X565544Y608450D01*
X562630Y605536D02*
X620776Y663682D01*
X620776Y684276D01*
X810768Y473690D02*
X752739Y415661D01*
X752622Y415544D01*
X810768Y473690D02*
X810768Y494284D01*
X752622Y605536D02*
X755536Y608450D01*
X810768Y663682D01*
X810768Y684276D01*
X942985Y415915D02*
X942614Y415544D01*
X942985Y415915D02*
X1000760Y473690D01*
X1000760Y494284D01*
X942614Y605536D02*
X945528Y608450D01*
X1000760Y663682D01*
X1000760Y684276D01*
X1190752Y473690D02*
X1132606Y415544D01*
X1190752Y473690D02*
X1190752Y494284D01*
X1132606Y605536D02*
X1190752Y663682D01*
X1190752Y684276D01*
X1380744Y473690D02*
X1329827Y422773D01*
X1322598Y415544D01*
X1380744Y473690D02*
X1380744Y494284D01*
X1323731Y606669D02*
X1380744Y663682D01*
X1323731Y606669D02*
X1322598Y605536D01*
X1380744Y663682D02*
X1380744Y684276D01*
X1570736Y473690D02*
X1512590Y415544D01*
X1570736Y473690D02*
X1570736Y494284D01*
X1512590Y605536D02*
X1570736Y663682D01*
X1570736Y684276D01*
X1760728Y473690D02*
X1702582Y415544D01*
X1760728Y473690D02*
X1760728Y494284D01*
X1702582Y605536D02*
X1760728Y663682D01*
X1760728Y684276D01*
X1894215Y417185D02*
X1892574Y415544D01*
X1894215Y417185D02*
X1950720Y473690D01*
X1950720Y494284D01*
X1950720Y663682D02*
X1950720Y684276D01*
X2140712Y489946D02*
X2082566Y431800D01*
X2140712Y489946D02*
X2140712Y494284D01*
X2082566Y622300D02*
X2140712Y680446D01*
X2140712Y684276D01*
X2082566Y431800D02*
X2082566Y415544D01*
X2082566Y606322D02*
X2082566Y622300D01*
X2082566Y606322D02*
X2082566Y605536D01*
X196362Y619252D02*
X182646Y605536D01*
X196362Y619252D02*
X229863Y619252D01*
X240792Y630181D01*
X240792Y684276D01*
X80700Y597336D02*
X50800Y627236D01*
X50800Y684276D01*
X281806Y608450D02*
X287092Y613736D01*
X281806Y608450D02*
X185560Y608450D01*
X182646Y605536D01*
X477084Y608203D02*
X477084Y613736D01*
X477084Y608203D02*
X476586Y607705D01*
X379105Y607705D01*
X667076Y608450D02*
X667076Y613736D01*
X667076Y608450D02*
X565544Y608450D01*
X755536Y608450D02*
X857068Y608450D01*
X857068Y613736D01*
X945528Y608450D02*
X1047060Y608450D01*
X1047060Y613736D01*
X1237052Y613736D02*
X1237052Y608450D01*
X1135520Y608450D01*
X1132606Y605536D01*
X1427044Y606669D02*
X1427044Y613736D01*
X1427044Y606669D02*
X1323731Y606669D01*
X1617036Y605670D02*
X1617036Y613736D01*
X1519093Y605536D02*
X1512590Y605536D01*
X1519093Y605536D02*
X1519227Y605670D01*
X1617036Y605670D01*
X1807028Y608450D02*
X1807028Y613736D01*
X1718825Y605536D02*
X1702582Y605536D01*
X1721739Y608450D02*
X1807028Y608450D01*
X1721739Y608450D02*
X1718825Y605536D01*
X2082566Y606322D02*
X2187012Y606322D01*
X2187012Y613736D01*
X97100Y423744D02*
X95425Y423744D01*
X61595Y457574D01*
X61595Y483489D02*
X50800Y494284D01*
X61595Y483489D02*
X61595Y457574D01*
X281806Y418458D02*
X287092Y423744D01*
X471798Y418458D02*
X477084Y423744D01*
X645333Y415544D02*
X645467Y415678D01*
X645333Y415544D02*
X562630Y415544D01*
X659010Y415678D02*
X667076Y423744D01*
X659010Y415678D02*
X645467Y415678D01*
X835442Y415661D02*
X835459Y415678D01*
X835442Y415661D02*
X752739Y415661D01*
X849002Y415678D02*
X857068Y423744D01*
X849002Y415678D02*
X835459Y415678D01*
X1039231Y415915D02*
X1047060Y423744D01*
X1039231Y415915D02*
X942985Y415915D01*
X1215309Y415544D02*
X1215443Y415678D01*
X1215309Y415544D02*
X1132606Y415544D01*
X1228986Y415678D02*
X1237052Y423744D01*
X1228986Y415678D02*
X1215443Y415678D01*
X1329827Y422773D02*
X1402382Y422773D01*
X1406697Y418458D01*
X1421758Y418458D02*
X1427044Y423744D01*
X1421758Y418458D02*
X1406697Y418458D01*
X1595293Y415544D02*
X1595427Y415678D01*
X1595293Y415544D02*
X1512590Y415544D01*
X1608970Y415678D02*
X1617036Y423744D01*
X1608970Y415678D02*
X1595427Y415678D01*
X1785285Y415544D02*
X1785419Y415678D01*
X1785285Y415544D02*
X1702582Y415544D01*
X1798962Y415678D02*
X1807028Y423744D01*
X1798962Y415678D02*
X1785419Y415678D01*
X1990461Y417185D02*
X1997020Y423744D01*
X1990461Y417185D02*
X1894215Y417185D01*
X2165269Y415544D02*
X2165403Y415678D01*
X2165269Y415544D02*
X2082566Y415544D01*
X2178946Y415678D02*
X2187012Y423744D01*
X2178946Y415678D02*
X2165403Y415678D01*
X61595Y293497D02*
X50800Y304292D01*
X95425Y233752D02*
X97100Y233752D01*
X95425Y233752D02*
X61595Y267582D01*
X61595Y293497D01*
X265349Y225552D02*
X265483Y225686D01*
X265349Y225552D02*
X182646Y225552D01*
X279026Y225686D02*
X287092Y233752D01*
X279026Y225686D02*
X265483Y225686D01*
X455341Y225552D02*
X455475Y225686D01*
X455341Y225552D02*
X373146Y225552D01*
X469018Y225686D02*
X477084Y233752D01*
X469018Y225686D02*
X455475Y225686D01*
X645333Y225552D02*
X645467Y225686D01*
X645333Y225552D02*
X562630Y225552D01*
X659010Y225686D02*
X667076Y233752D01*
X659010Y225686D02*
X645467Y225686D01*
X835325Y225552D02*
X835459Y225686D01*
X835325Y225552D02*
X752622Y225552D01*
X849002Y225686D02*
X857068Y233752D01*
X849002Y225686D02*
X835459Y225686D01*
X1025317Y225552D02*
X1025451Y225686D01*
X1025317Y225552D02*
X942614Y225552D01*
X1038994Y225686D02*
X1047060Y233752D01*
X1038994Y225686D02*
X1025451Y225686D01*
X1215309Y225552D02*
X1215443Y225686D01*
X1215309Y225552D02*
X1132606Y225552D01*
X1228986Y225686D02*
X1237052Y233752D01*
X1228986Y225686D02*
X1215443Y225686D01*
X1419469Y226177D02*
X1427044Y233752D01*
X1419469Y226177D02*
X1323223Y226177D01*
X1609715Y226431D02*
X1617036Y233752D01*
X1609715Y226431D02*
X1513469Y226431D01*
X1799961Y226685D02*
X1807028Y233752D01*
X1799961Y226685D02*
X1703715Y226685D01*
X1990207Y226939D02*
X1997020Y233752D01*
X1990207Y226939D02*
X1893961Y226939D01*
X2179845Y233752D02*
X2187012Y233752D01*
X2179845Y233752D02*
X2174559Y228466D01*
X2159134Y228466D01*
X2140712Y246888D01*
X2140712Y304292D01*
X97100Y43760D02*
X95425Y43760D01*
X50800Y88385D01*
X50800Y114300D01*
X265349Y35560D02*
X265483Y35694D01*
X265349Y35560D02*
X182646Y35560D01*
X279026Y35694D02*
X287092Y43760D01*
X279026Y35694D02*
X265483Y35694D01*
X455341Y35560D02*
X455475Y35694D01*
X455341Y35560D02*
X373146Y35560D01*
X469018Y35694D02*
X477084Y43760D01*
X469018Y35694D02*
X455475Y35694D01*
X568335Y41265D02*
X643938Y41265D01*
X646729Y38474D01*
X661790Y38474D02*
X667076Y43760D01*
X661790Y38474D02*
X646729Y38474D01*
X835325Y35560D02*
X835459Y35694D01*
X835325Y35560D02*
X752622Y35560D01*
X849002Y35694D02*
X857068Y43760D01*
X849002Y35694D02*
X835459Y35694D01*
X1025317Y35560D02*
X1025451Y35694D01*
X1025317Y35560D02*
X942614Y35560D01*
X1038994Y35694D02*
X1047060Y43760D01*
X1038994Y35694D02*
X1025451Y35694D01*
X1215309Y35560D02*
X1215443Y35694D01*
X1215309Y35560D02*
X1132606Y35560D01*
X1228986Y35694D02*
X1237052Y43760D01*
X1228986Y35694D02*
X1215443Y35694D01*
X1419215Y35931D02*
X1427044Y43760D01*
X1419215Y35931D02*
X1322969Y35931D01*
X1595293Y35560D02*
X1595427Y35694D01*
X1595293Y35560D02*
X1512590Y35560D01*
X1608970Y35694D02*
X1617036Y43760D01*
X1608970Y35694D02*
X1595427Y35694D01*
X1785285Y35560D02*
X1785419Y35694D01*
X1785285Y35560D02*
X1702582Y35560D01*
X1798962Y35694D02*
X1807028Y43760D01*
X1798962Y35694D02*
X1785419Y35694D01*
X1989953Y36693D02*
X1997020Y43760D01*
X1989953Y36693D02*
X1893707Y36693D01*
X2180199Y36947D02*
X2187012Y43760D01*
X2180199Y36947D02*
X2083953Y36947D01*
X185560Y418458D02*
X182646Y415544D01*
X185560Y418458D02*
X281806Y418458D01*
X373146Y415544D02*
X376060Y418458D01*
X471798Y418458D01*
X379105Y607705D02*
X375315Y607705D01*
X373146Y605536D01*
X1892574Y605536D02*
X1950720Y663682D01*
X1975411Y605670D02*
X1975277Y605536D01*
X1892574Y605536D01*
X1988954Y605670D02*
X1997020Y613736D01*
X1988954Y605670D02*
X1975411Y605670D01*
X215900Y635000D02*
X186395Y635000D01*
X182875Y631481D01*
X182875Y630936D01*
X97380Y597057D02*
X97100Y597336D01*
X270413Y597057D02*
X270692Y597336D01*
X270413Y597057D02*
X97380Y597057D01*
X460248Y596900D02*
X460684Y597336D01*
X291039Y619022D02*
X283145Y619022D01*
X313161Y596900D02*
X460248Y596900D01*
X277859Y613736D02*
X270692Y613736D01*
X291039Y619022D02*
X313161Y596900D01*
X283145Y619022D02*
X277859Y613736D01*
X460684Y613736D02*
X467851Y613736D01*
X473137Y619022D01*
X485878Y619022D01*
X567639Y597057D02*
X567919Y597336D01*
X650676Y597336D01*
X507844Y597057D02*
X485878Y619022D01*
X507844Y597057D02*
X567639Y597057D01*
X840232Y596900D02*
X840668Y597336D01*
X671023Y619022D02*
X663129Y619022D01*
X657843Y613736D01*
X650676Y613736D01*
X671023Y619022D02*
X693145Y596900D01*
X840232Y596900D01*
X861015Y619022D02*
X883137Y596900D01*
X1030224Y596900D01*
X1030660Y597336D01*
X861015Y619022D02*
X853121Y619022D01*
X847835Y613736D01*
X840668Y613736D01*
X1220372Y597056D02*
X1220652Y597336D01*
X1220372Y597056D02*
X1072973Y597056D01*
X1051007Y619022D01*
X1035946Y619022D01*
X1030660Y613736D01*
X1327607Y597057D02*
X1327887Y597336D01*
X1410644Y597336D01*
X1327607Y597057D02*
X1269844Y597057D01*
X1233105Y619022D02*
X1227819Y613736D01*
X1220652Y613736D01*
X1247878Y619022D02*
X1269844Y597057D01*
X1247878Y619022D02*
X1233105Y619022D01*
X1410644Y613736D02*
X1417811Y613736D01*
X1423097Y619022D02*
X1430991Y619022D01*
X1423097Y619022D02*
X1417811Y613736D01*
X1517879Y597336D02*
X1600636Y597336D01*
X1452956Y597057D02*
X1430991Y619022D01*
X1517599Y597057D02*
X1517879Y597336D01*
X1517599Y597057D02*
X1452956Y597057D01*
X1600636Y613736D02*
X1607803Y613736D01*
X1613089Y619022D01*
X1779263Y593852D02*
X1782747Y597336D01*
X1790628Y597336D01*
X1620983Y619022D02*
X1613089Y619022D01*
X1646153Y593852D02*
X1779263Y593852D01*
X1646153Y593852D02*
X1620983Y619022D01*
X1790628Y613736D02*
X1797795Y613736D01*
X1980184Y596900D02*
X1980620Y597336D01*
X1810975Y619022D02*
X1803081Y619022D01*
X1833097Y596900D02*
X1980184Y596900D01*
X1803081Y619022D02*
X1797795Y613736D01*
X1810975Y619022D02*
X1833097Y596900D01*
X1980620Y613736D02*
X1987787Y613736D01*
X1993073Y619022D01*
X2087855Y597336D02*
X2170612Y597336D01*
X2087855Y597336D02*
X2087575Y597057D01*
X2022932Y597057D01*
X2000967Y619022D01*
X1993073Y619022D01*
X2170612Y613736D02*
X2175836Y613736D01*
X2222500Y660400D01*
X2222500Y723900D01*
X2209800Y736600D01*
X63500Y736600D01*
X25400Y698500D01*
X25400Y457200D01*
X75256Y407344D01*
X80700Y407344D01*
X80700Y423744D02*
X87867Y423744D01*
X98981Y412630D01*
X172255Y407065D02*
X270413Y407065D01*
X270692Y407344D01*
X166690Y412630D02*
X98981Y412630D01*
X166690Y412630D02*
X172255Y407065D01*
X378155Y407065D02*
X378435Y407344D01*
X460684Y407344D01*
X277859Y423744D02*
X270692Y423744D01*
X277859Y423744D02*
X283145Y429030D01*
X291039Y429030D01*
X313004Y407065D02*
X378155Y407065D01*
X313004Y407065D02*
X291039Y429030D01*
X460684Y423744D02*
X467851Y423744D01*
X649732Y406400D02*
X650676Y407344D01*
X481031Y429030D02*
X473137Y429030D01*
X467851Y423744D01*
X503661Y406400D02*
X649732Y406400D01*
X503661Y406400D02*
X481031Y429030D01*
X650676Y423744D02*
X657843Y423744D01*
X663129Y429030D01*
X839724Y406400D02*
X840668Y407344D01*
X671023Y429030D02*
X663129Y429030D01*
X693653Y406400D02*
X839724Y406400D01*
X693653Y406400D02*
X671023Y429030D01*
X840668Y423744D02*
X847835Y423744D01*
X853121Y429030D01*
X1029716Y406400D02*
X1030660Y407344D01*
X861015Y429030D02*
X853121Y429030D01*
X883645Y406400D02*
X1029716Y406400D01*
X883645Y406400D02*
X861015Y429030D01*
X1030660Y423744D02*
X1037827Y423744D01*
X1043113Y429030D01*
X1219708Y406400D02*
X1220652Y407344D01*
X1051007Y429030D02*
X1043113Y429030D01*
X1073637Y406400D02*
X1219708Y406400D01*
X1073637Y406400D02*
X1051007Y429030D01*
X1220652Y423744D02*
X1227819Y423744D01*
X1233105Y429030D01*
X1409700Y406400D02*
X1410644Y407344D01*
X1240999Y429030D02*
X1233105Y429030D01*
X1263629Y406400D02*
X1409700Y406400D01*
X1263629Y406400D02*
X1240999Y429030D01*
X1410644Y423744D02*
X1417811Y423744D01*
X1423097Y429030D01*
X1599692Y406400D02*
X1600636Y407344D01*
X1430991Y429030D02*
X1423097Y429030D01*
X1453621Y406400D02*
X1599692Y406400D01*
X1453621Y406400D02*
X1430991Y429030D01*
X1600636Y423744D02*
X1607803Y423744D01*
X1613089Y429030D01*
X1789684Y406400D02*
X1790628Y407344D01*
X1620983Y429030D02*
X1613089Y429030D01*
X1643613Y406400D02*
X1789684Y406400D01*
X1643613Y406400D02*
X1620983Y429030D01*
X1790628Y423744D02*
X1797795Y423744D01*
X1803081Y429030D01*
X1979676Y406400D02*
X1980620Y407344D01*
X1810975Y429030D02*
X1803081Y429030D01*
X1833605Y406400D02*
X1979676Y406400D01*
X1833605Y406400D02*
X1810975Y429030D01*
X1980620Y423744D02*
X1987787Y423744D01*
X1993073Y429030D01*
X2125875Y407065D02*
X2126155Y407344D01*
X2170612Y407344D01*
X2000967Y429030D02*
X1993073Y429030D01*
X2022932Y407065D02*
X2125875Y407065D01*
X2022932Y407065D02*
X2000967Y429030D01*
X2170612Y423744D02*
X2175898Y429030D01*
X2190959Y429030D01*
X80700Y224519D02*
X80700Y217352D01*
X2190959Y429030D02*
X2192298Y427691D01*
X2144501Y355600D02*
X63500Y355600D01*
X2144501Y355600D02*
X2192298Y403397D01*
X2192298Y427691D01*
X80700Y224519D02*
X24575Y280645D01*
X24575Y316675D01*
X63500Y355600D01*
X80700Y233752D02*
X91814Y222638D01*
X101047Y222638D01*
X266192Y212852D02*
X270692Y217352D01*
X266192Y212852D02*
X110833Y212852D01*
X101047Y222638D01*
X270692Y233752D02*
X277859Y233752D01*
X283145Y239038D01*
X291039Y239038D01*
X455762Y217352D02*
X460684Y217352D01*
X455762Y217352D02*
X451262Y212852D01*
X317225Y212852D01*
X291039Y239038D01*
X460684Y233752D02*
X467851Y233752D01*
X650676Y217352D02*
X650676Y214565D01*
X648963Y212852D01*
X473137Y239038D02*
X467851Y233752D01*
X473137Y239038D02*
X481031Y239038D01*
X507217Y212852D02*
X648963Y212852D01*
X507217Y212852D02*
X481031Y239038D01*
X663129Y239038D02*
X671023Y239038D01*
X657843Y233752D02*
X650676Y233752D01*
X657843Y233752D02*
X663129Y239038D01*
X671023Y239038D02*
X694161Y215900D01*
X839216Y215900D01*
X840668Y217352D01*
X840668Y233752D02*
X847835Y233752D01*
X853121Y239038D01*
X1029208Y215900D02*
X1030660Y217352D01*
X861015Y239038D02*
X853121Y239038D01*
X884153Y215900D02*
X1029208Y215900D01*
X884153Y215900D02*
X861015Y239038D01*
X1030660Y233752D02*
X1037827Y233752D01*
X1043113Y239038D01*
X1219200Y215900D02*
X1220652Y217352D01*
X1051007Y239038D02*
X1043113Y239038D01*
X1074145Y215900D02*
X1219200Y215900D01*
X1074145Y215900D02*
X1051007Y239038D01*
X1220652Y233752D02*
X1227819Y233752D01*
X1233105Y239038D01*
X1246862Y239038D01*
X1270000Y215900D01*
X1409192Y215900D01*
X1410644Y217352D01*
X1410644Y233752D02*
X1417811Y233752D01*
X1423097Y239038D01*
X1599184Y215900D02*
X1600636Y217352D01*
X1430991Y239038D02*
X1423097Y239038D01*
X1454129Y215900D02*
X1599184Y215900D01*
X1454129Y215900D02*
X1430991Y239038D01*
X1600636Y233752D02*
X1607803Y233752D01*
X1613089Y239038D01*
X1707591Y217073D02*
X1707871Y217352D01*
X1790628Y217352D01*
X1620983Y239038D02*
X1613089Y239038D01*
X1642948Y217073D02*
X1707591Y217073D01*
X1642948Y217073D02*
X1620983Y239038D01*
X1790628Y233752D02*
X1797795Y233752D01*
X1803081Y239038D01*
X1979168Y215900D02*
X1980620Y217352D01*
X1810975Y239038D02*
X1803081Y239038D01*
X1834113Y215900D02*
X1979168Y215900D01*
X1834113Y215900D02*
X1810975Y239038D01*
X1980620Y233752D02*
X1987787Y233752D01*
X1993073Y239038D01*
X2170612Y217352D02*
X2170612Y215900D01*
X2000967Y239038D02*
X1993073Y239038D01*
X2024105Y215900D02*
X2170612Y215900D01*
X2024105Y215900D02*
X2000967Y239038D01*
X63500Y165100D02*
X25400Y127000D01*
X25400Y82660D01*
X80700Y27360D01*
X2170612Y233752D02*
X2175898Y239038D01*
X2190959Y239038D01*
X2192298Y237699D01*
X2192298Y213405D01*
X2143993Y165100D01*
X63500Y165100D01*
X37275Y87186D02*
X80700Y43760D01*
X37275Y87186D02*
X37275Y119903D01*
X45198Y127826D01*
X56403Y127826D01*
X57228Y127000D01*
X101600Y127000D01*
X139700Y88900D01*
X139700Y38100D01*
X187935Y27360D02*
X270692Y27360D01*
X187935Y27360D02*
X187655Y27081D01*
X150720Y27081D01*
X139700Y38100D01*
X270692Y43760D02*
X277859Y43760D01*
X458724Y25400D02*
X460684Y27360D01*
X283145Y49046D02*
X277859Y43760D01*
X283145Y49046D02*
X291039Y49046D01*
X314685Y25400D02*
X458724Y25400D01*
X314685Y25400D02*
X291039Y49046D01*
X460684Y43760D02*
X467851Y43760D01*
X473137Y49046D01*
X484354Y49046D01*
X567919Y27360D02*
X650676Y27360D01*
X567919Y27360D02*
X567639Y27081D01*
X506320Y27081D01*
X484354Y49046D01*
X650676Y43760D02*
X657843Y43760D01*
X838708Y25400D02*
X840668Y27360D01*
X663129Y49046D02*
X657843Y43760D01*
X663129Y49046D02*
X671023Y49046D01*
X694669Y25400D02*
X838708Y25400D01*
X694669Y25400D02*
X671023Y49046D01*
X840668Y43760D02*
X847835Y43760D01*
X1029970Y26670D02*
X1030660Y27360D01*
X853121Y49046D02*
X847835Y43760D01*
X853121Y49046D02*
X861015Y49046D01*
X883391Y26670D02*
X1029970Y26670D01*
X883391Y26670D02*
X861015Y49046D01*
X1030660Y43760D02*
X1037827Y43760D01*
X1043113Y49046D01*
X1218692Y25400D02*
X1220652Y27360D01*
X1051007Y49046D02*
X1043113Y49046D01*
X1074653Y25400D02*
X1218692Y25400D01*
X1074653Y25400D02*
X1051007Y49046D01*
X1220652Y43760D02*
X1227819Y43760D01*
X1233105Y49046D01*
X1327887Y27360D02*
X1410644Y27360D01*
X1327887Y27360D02*
X1327607Y27081D01*
X1240999Y49046D02*
X1233105Y49046D01*
X1262964Y27081D02*
X1327607Y27081D01*
X1262964Y27081D02*
X1240999Y49046D01*
X1410644Y43760D02*
X1417811Y43760D01*
X1423097Y49046D01*
X1436854Y49046D01*
X1460500Y25400D01*
X1598676Y25400D01*
X1600636Y27360D01*
X1600636Y43760D02*
X1607803Y43760D01*
X1613089Y49046D01*
X1788668Y25400D02*
X1790628Y27360D01*
X1620983Y49046D02*
X1613089Y49046D01*
X1644629Y25400D02*
X1788668Y25400D01*
X1644629Y25400D02*
X1620983Y49046D01*
X1790628Y43760D02*
X1797795Y43760D01*
X1803081Y49046D01*
X1978660Y25400D02*
X1980620Y27360D01*
X1810975Y49046D02*
X1803081Y49046D01*
X1834621Y25400D02*
X1978660Y25400D01*
X1834621Y25400D02*
X1810975Y49046D01*
X1980620Y43760D02*
X1987787Y43760D01*
X1993073Y49046D01*
X2169922Y26670D02*
X2170612Y27360D01*
X2000967Y49046D02*
X1993073Y49046D01*
X2023343Y26670D02*
X2169922Y26670D01*
X2023343Y26670D02*
X2000967Y49046D01*
X155525Y613736D02*
X97100Y613736D01*
X155525Y613736D02*
X172725Y630936D01*
M02*
