M48
;GenerationSoftware,Autodesk,EAGLE,9.7.0*%
;CreationDate,2022-03-14T06:07:48Z*%
FMAT,2
ICI,OFF
METRIC,TZ,000.000
T4C0.600
T3C1.499
T2C3.988
%
G90
M71
T2
X8890Y8890
X27889Y8890
X103886Y46888
X179883Y8890
X46888Y65888
X141884Y27889
X198882Y8890
X46888Y46888
X8890Y65888
X217881Y8890
X160884Y27889
X122885Y46888
X8890Y27889
X65888Y46888
X179883Y27889
X27889Y27889
X179883Y46888
X217881Y46888
X46888Y27889
X198882Y27889
X84887Y46888
X65888Y27889
X141884Y46888
X217881Y27889
X84887Y27889
X27889Y65888
X46888Y8890
X103886Y27889
X8890Y46888
X198882Y46888
X122885Y27889
X160884Y46888
X27889Y46888
X65888Y8890
X65888Y65888
X84887Y65888
X103886Y65888
X122885Y65888
X141884Y65888
X160884Y65888
X179883Y65888
X198882Y65888
X217881Y65888
X84887Y8890
X103886Y8890
X122885Y8890
X141884Y8890
X160884Y8890
T3
X68428Y32969
X81077Y30429
X87427Y32969
X100076Y30429
X106426Y32969
X119075Y30429
X125425Y32969
X24079Y11430
X30429Y13970
X138074Y30429
X144424Y32969
X157074Y30429
X163424Y32969
X176073Y30429
X182423Y32969
X195072Y30429
X201422Y32969
X214071Y30429
X220421Y32969
X5080Y49428
X11430Y51968
X24079Y49428
X30429Y51968
X43078Y49428
X49428Y51968
X62078Y49428
X68428Y51968
X81077Y49428
X87427Y51968
X43078Y11430
X49428Y13970
X100076Y49428
X106426Y51968
X119075Y49428
X125425Y51968
X138074Y49428
X144424Y51968
X157074Y49428
X163424Y51968
X176073Y49428
X182423Y51968
X195072Y49428
X201422Y51968
X214071Y49428
X220421Y51968
X5080Y68428
X11430Y70968
X24079Y68428
X30429Y70968
X43078Y68428
X49428Y70968
X5080Y11430
X62078Y11430
X68428Y13970
X11430Y13970
X62078Y68428
X68428Y70968
X176073Y11430
X81077Y68428
X87427Y70968
X182423Y13970
X100076Y68428
X106426Y70968
X195072Y11430
X119075Y68428
X125425Y70968
X201422Y13970
X138074Y68428
X144424Y70968
X214071Y11430
X157074Y68428
X163424Y70968
X220421Y13970
X176073Y68428
X182423Y70968
X5080Y30429
X195072Y68428
X201422Y70968
X11430Y32969
X214071Y68428
X220421Y70968
X24079Y30429
X81077Y11430
X87427Y13970
X30429Y32969
X100076Y11430
X106426Y13970
X43078Y30429
X119075Y11430
X125425Y13970
X49428Y32969
X138074Y11430
X144424Y13970
X62078Y30429
X157074Y11430
X163424Y13970
T4
X74778Y51943
X55778Y51943
X36779Y51943
X17780Y51943
X213868Y70993
X204470Y70993
X188773Y70993
X169774Y70993
X150774Y70993
X131775Y70993
X112776Y70993
X93777Y70993
X74778Y70993
X55778Y70993
X36779Y70993
X17780Y70993
X225196Y71120
X225196Y52070
X150774Y33020
X131775Y33020
X112776Y33020
X93777Y33020
X74778Y33020
X55778Y33020
X36779Y33020
X17780Y33020
X213868Y51943
X204470Y51943
X188773Y51943
X169774Y51943
X150774Y51943
X131775Y51943
X112776Y51943
X93777Y51943
X213868Y13970
X204470Y13970
X188773Y13970
X169774Y13970
X150774Y13970
X131775Y13970
X112776Y13970
X93777Y13970
X74778Y13970
X55778Y13970
X36779Y13970
X17780Y13970
X213868Y33020
X204470Y33020
X188773Y33020
X169774Y33020
X21590Y63500
M30