G04 EAGLE Gerber RS-274X export*
G75*
%MOMM*%
%FSLAX34Y34*%
%LPD*%
%INSoldermask Top*%
%IPPOS*%
%AMOC8*
5,1,8,0,0,1.08239X$1,22.5*%
G01*
G04 Define Apertures*
%ADD10R,0.803200X0.803200*%
%ADD11R,0.763200X0.832300*%
%ADD12R,0.738300X0.847200*%
%ADD13C,5.207000*%
%ADD14C,2.451100*%
%ADD15C,1.311200*%
D10*
X97100Y27360D03*
X80700Y27360D03*
X97100Y43760D03*
X80700Y43760D03*
X1807028Y27360D03*
X1790628Y27360D03*
X1807028Y43760D03*
X1790628Y43760D03*
X1997020Y27360D03*
X1980620Y27360D03*
X1997020Y43760D03*
X1980620Y43760D03*
X2187012Y27360D03*
X2170612Y27360D03*
X2187012Y43760D03*
X2170612Y43760D03*
X97100Y217352D03*
X80700Y217352D03*
X97100Y233752D03*
X80700Y233752D03*
X287092Y217352D03*
X270692Y217352D03*
X287092Y233752D03*
X270692Y233752D03*
X477084Y217352D03*
X460684Y217352D03*
X477084Y233752D03*
X460684Y233752D03*
X667076Y217352D03*
X650676Y217352D03*
X667076Y233752D03*
X650676Y233752D03*
X857068Y217352D03*
X840668Y217352D03*
X857068Y233752D03*
X840668Y233752D03*
X1047060Y217352D03*
X1030660Y217352D03*
X1047060Y233752D03*
X1030660Y233752D03*
X1237052Y217352D03*
X1220652Y217352D03*
X1237052Y233752D03*
X1220652Y233752D03*
X287092Y27360D03*
X270692Y27360D03*
X287092Y43760D03*
X270692Y43760D03*
X1427044Y217352D03*
X1410644Y217352D03*
X1427044Y233752D03*
X1410644Y233752D03*
X1617036Y217352D03*
X1600636Y217352D03*
X1617036Y233752D03*
X1600636Y233752D03*
X1807028Y217352D03*
X1790628Y217352D03*
X1807028Y233752D03*
X1790628Y233752D03*
X1997020Y217352D03*
X1980620Y217352D03*
X1997020Y233752D03*
X1980620Y233752D03*
X2187012Y217352D03*
X2170612Y217352D03*
X2187012Y233752D03*
X2170612Y233752D03*
X97100Y407344D03*
X80700Y407344D03*
X97100Y423744D03*
X80700Y423744D03*
X287092Y407344D03*
X270692Y407344D03*
X287092Y423744D03*
X270692Y423744D03*
X477084Y407344D03*
X460684Y407344D03*
X477084Y423744D03*
X460684Y423744D03*
X667076Y407344D03*
X650676Y407344D03*
X667076Y423744D03*
X650676Y423744D03*
X857068Y407344D03*
X840668Y407344D03*
X857068Y423744D03*
X840668Y423744D03*
X477084Y27360D03*
X460684Y27360D03*
X477084Y43760D03*
X460684Y43760D03*
X1047060Y407344D03*
X1030660Y407344D03*
X1047060Y423744D03*
X1030660Y423744D03*
X1237052Y407344D03*
X1220652Y407344D03*
X1237052Y423744D03*
X1220652Y423744D03*
X1427044Y407344D03*
X1410644Y407344D03*
X1427044Y423744D03*
X1410644Y423744D03*
X1617036Y407344D03*
X1600636Y407344D03*
X1617036Y423744D03*
X1600636Y423744D03*
X1807028Y407344D03*
X1790628Y407344D03*
X1807028Y423744D03*
X1790628Y423744D03*
X1997020Y407344D03*
X1980620Y407344D03*
X1997020Y423744D03*
X1980620Y423744D03*
X2187012Y407344D03*
X2170612Y407344D03*
X2187012Y423744D03*
X2170612Y423744D03*
X80700Y613736D03*
X97100Y613736D03*
X80700Y597336D03*
X97100Y597336D03*
X287092Y597336D03*
X270692Y597336D03*
X287092Y613736D03*
X270692Y613736D03*
X477084Y597336D03*
X460684Y597336D03*
X477084Y613736D03*
X460684Y613736D03*
X667076Y27360D03*
X650676Y27360D03*
X667076Y43760D03*
X650676Y43760D03*
X667076Y597336D03*
X650676Y597336D03*
X667076Y613736D03*
X650676Y613736D03*
X857068Y597336D03*
X840668Y597336D03*
X857068Y613736D03*
X840668Y613736D03*
X1047060Y597336D03*
X1030660Y597336D03*
X1047060Y613736D03*
X1030660Y613736D03*
X1237052Y597336D03*
X1220652Y597336D03*
X1237052Y613736D03*
X1220652Y613736D03*
X1427044Y597336D03*
X1410644Y597336D03*
X1427044Y613736D03*
X1410644Y613736D03*
X1617036Y597336D03*
X1600636Y597336D03*
X1617036Y613736D03*
X1600636Y613736D03*
X1807028Y597336D03*
X1790628Y597336D03*
X1807028Y613736D03*
X1790628Y613736D03*
X1997020Y597336D03*
X1980620Y597336D03*
X1997020Y613736D03*
X1980620Y613736D03*
X2187012Y597336D03*
X2170612Y597336D03*
X2187012Y613736D03*
X2170612Y613736D03*
X857068Y27360D03*
X840668Y27360D03*
X857068Y43760D03*
X840668Y43760D03*
X1047060Y27360D03*
X1030660Y27360D03*
X1047060Y43760D03*
X1030660Y43760D03*
X1237052Y27360D03*
X1220652Y27360D03*
X1237052Y43760D03*
X1220652Y43760D03*
X1427044Y27360D03*
X1410644Y27360D03*
X1427044Y43760D03*
X1410644Y43760D03*
X1617036Y27360D03*
X1600636Y27360D03*
X1617036Y43760D03*
X1600636Y43760D03*
D11*
X172954Y35560D03*
X182646Y35560D03*
X1882882Y35560D03*
X1892574Y35560D03*
X2072874Y63500D03*
X2082566Y63500D03*
X2072874Y35560D03*
X2082566Y35560D03*
X172954Y225552D03*
X182646Y225552D03*
X363454Y225552D03*
X373146Y225552D03*
X552938Y225552D03*
X562630Y225552D03*
X742930Y225552D03*
X752622Y225552D03*
X932922Y225552D03*
X942614Y225552D03*
X1122914Y225552D03*
X1132606Y225552D03*
X1312906Y225552D03*
X1322598Y225552D03*
X363454Y35560D03*
X373146Y35560D03*
X1502898Y225552D03*
X1512590Y225552D03*
X1692890Y225552D03*
X1702582Y225552D03*
X1882882Y225552D03*
X1892574Y225552D03*
X2072874Y241300D03*
X2082566Y241300D03*
X2072874Y225552D03*
X2082566Y225552D03*
X172954Y415544D03*
X182646Y415544D03*
X363454Y415544D03*
X373146Y415544D03*
X552938Y415544D03*
X562630Y415544D03*
X742930Y415544D03*
X752622Y415544D03*
X932922Y415544D03*
X942614Y415544D03*
X552938Y35560D03*
X562630Y35560D03*
X1122914Y415544D03*
X1132606Y415544D03*
X1312906Y415544D03*
X1322598Y415544D03*
X1502898Y415544D03*
X1512590Y415544D03*
X1692890Y415544D03*
X1702582Y415544D03*
X1882882Y415544D03*
X1892574Y415544D03*
X2072874Y431800D03*
X2082566Y431800D03*
X2072874Y415544D03*
X2082566Y415544D03*
X172954Y605536D03*
X182646Y605536D03*
X363454Y605536D03*
X373146Y605536D03*
X552938Y605536D03*
X562630Y605536D03*
X742930Y35560D03*
X752622Y35560D03*
X742930Y605536D03*
X752622Y605536D03*
X932922Y605536D03*
X942614Y605536D03*
X1122914Y605536D03*
X1132606Y605536D03*
X1312906Y605536D03*
X1322598Y605536D03*
X1502898Y605536D03*
X1512590Y605536D03*
X1692890Y605536D03*
X1702582Y605536D03*
X1882882Y605536D03*
X1892574Y605536D03*
X2072874Y622300D03*
X2082566Y622300D03*
X2072874Y605536D03*
X2082566Y605536D03*
X932922Y35560D03*
X942614Y35560D03*
X1122914Y35560D03*
X1132606Y35560D03*
X1312906Y35560D03*
X1322598Y35560D03*
X1502898Y35560D03*
X1512590Y35560D03*
X1692890Y35560D03*
X1702582Y35560D03*
D12*
X172725Y88900D03*
X182875Y88900D03*
X1882653Y88900D03*
X1892803Y88900D03*
X2072645Y88900D03*
X2082795Y88900D03*
X2072645Y139700D03*
X2082795Y139700D03*
X172725Y278892D03*
X182875Y278892D03*
X362717Y278892D03*
X372867Y278892D03*
X552709Y278892D03*
X562859Y278892D03*
X742701Y278892D03*
X752851Y278892D03*
X932693Y278892D03*
X942843Y278892D03*
X1122685Y278892D03*
X1132835Y278892D03*
X1312677Y278892D03*
X1322827Y278892D03*
X362717Y88900D03*
X372867Y88900D03*
X1502669Y278892D03*
X1512819Y278892D03*
X1692661Y278892D03*
X1702811Y278892D03*
X1882653Y278892D03*
X1892803Y278892D03*
X2072645Y278892D03*
X2082795Y278892D03*
X2072645Y329692D03*
X2082795Y329692D03*
X172725Y468884D03*
X182875Y468884D03*
X362717Y468884D03*
X372867Y468884D03*
X552709Y468884D03*
X562859Y468884D03*
X742701Y468884D03*
X752851Y468884D03*
X932693Y468884D03*
X942843Y468884D03*
X552709Y88900D03*
X562859Y88900D03*
X1122685Y468884D03*
X1132835Y468884D03*
X1312677Y468884D03*
X1322827Y468884D03*
X1502669Y468884D03*
X1512819Y468884D03*
X1692661Y468884D03*
X1702811Y468884D03*
X1882653Y468884D03*
X1892803Y468884D03*
X2072645Y468884D03*
X2082795Y468884D03*
X2072645Y519684D03*
X2082795Y519684D03*
X172725Y658876D03*
X182875Y658876D03*
X362717Y658876D03*
X372867Y658876D03*
X552709Y658876D03*
X562859Y658876D03*
X742701Y88900D03*
X752851Y88900D03*
X742701Y658876D03*
X752851Y658876D03*
X932693Y658876D03*
X942843Y658876D03*
X1122685Y658876D03*
X1132835Y658876D03*
X1312677Y658876D03*
X1322827Y658876D03*
X1502669Y658876D03*
X1512819Y658876D03*
X1692661Y658876D03*
X1702811Y658876D03*
X1882653Y658876D03*
X1892803Y658876D03*
X2072645Y658876D03*
X2082795Y658876D03*
X2072645Y709676D03*
X2082795Y709676D03*
X172725Y630936D03*
X182875Y630936D03*
X932693Y88900D03*
X942843Y88900D03*
X1122685Y88900D03*
X1132835Y88900D03*
X1312677Y88900D03*
X1322827Y88900D03*
X1502669Y88900D03*
X1512819Y88900D03*
X1692661Y88900D03*
X1702811Y88900D03*
D13*
X88900Y88900D03*
D14*
X50800Y114300D03*
X114300Y139700D03*
D13*
X1798828Y88900D03*
D14*
X1760728Y114300D03*
X1824228Y139700D03*
D13*
X1988820Y88900D03*
D14*
X1950720Y114300D03*
X2014220Y139700D03*
D13*
X2178812Y88900D03*
D14*
X2140712Y114300D03*
X2204212Y139700D03*
D13*
X88900Y278892D03*
D14*
X50800Y304292D03*
X114300Y329692D03*
D13*
X278892Y278892D03*
D14*
X240792Y304292D03*
X304292Y329692D03*
D13*
X468884Y278892D03*
D14*
X430784Y304292D03*
X494284Y329692D03*
D13*
X658876Y278892D03*
D14*
X620776Y304292D03*
X684276Y329692D03*
D13*
X848868Y278892D03*
D14*
X810768Y304292D03*
X874268Y329692D03*
D13*
X1038860Y278892D03*
D14*
X1000760Y304292D03*
X1064260Y329692D03*
D13*
X1228852Y278892D03*
D14*
X1190752Y304292D03*
X1254252Y329692D03*
D13*
X278892Y88900D03*
D14*
X240792Y114300D03*
X304292Y139700D03*
D13*
X1418844Y278892D03*
D14*
X1380744Y304292D03*
X1444244Y329692D03*
D13*
X1608836Y278892D03*
D14*
X1570736Y304292D03*
X1634236Y329692D03*
D13*
X1798828Y278892D03*
D14*
X1760728Y304292D03*
X1824228Y329692D03*
D13*
X1988820Y278892D03*
D14*
X1950720Y304292D03*
X2014220Y329692D03*
D13*
X2178812Y278892D03*
D14*
X2140712Y304292D03*
X2204212Y329692D03*
D13*
X88900Y468884D03*
D14*
X50800Y494284D03*
X114300Y519684D03*
D13*
X278892Y468884D03*
D14*
X240792Y494284D03*
X304292Y519684D03*
D13*
X468884Y468884D03*
D14*
X430784Y494284D03*
X494284Y519684D03*
D13*
X658876Y468884D03*
D14*
X620776Y494284D03*
X684276Y519684D03*
D13*
X848868Y468884D03*
D14*
X810768Y494284D03*
X874268Y519684D03*
D13*
X468884Y88900D03*
D14*
X430784Y114300D03*
X494284Y139700D03*
D13*
X1038860Y468884D03*
D14*
X1000760Y494284D03*
X1064260Y519684D03*
D13*
X1228852Y468884D03*
D14*
X1190752Y494284D03*
X1254252Y519684D03*
D13*
X1418844Y468884D03*
D14*
X1380744Y494284D03*
X1444244Y519684D03*
D13*
X1608836Y468884D03*
D14*
X1570736Y494284D03*
X1634236Y519684D03*
D13*
X1798828Y468884D03*
D14*
X1760728Y494284D03*
X1824228Y519684D03*
D13*
X1988820Y468884D03*
D14*
X1950720Y494284D03*
X2014220Y519684D03*
D13*
X2178812Y468884D03*
D14*
X2140712Y494284D03*
X2204212Y519684D03*
D13*
X88900Y658876D03*
D14*
X50800Y684276D03*
X114300Y709676D03*
D13*
X278892Y658876D03*
D14*
X240792Y684276D03*
X304292Y709676D03*
D13*
X468884Y658876D03*
D14*
X430784Y684276D03*
X494284Y709676D03*
D13*
X658876Y88900D03*
D14*
X620776Y114300D03*
X684276Y139700D03*
D13*
X658876Y658876D03*
D14*
X620776Y684276D03*
X684276Y709676D03*
D13*
X848868Y658876D03*
D14*
X810768Y684276D03*
X874268Y709676D03*
D13*
X1038860Y658876D03*
D14*
X1000760Y684276D03*
X1064260Y709676D03*
D13*
X1228852Y658876D03*
D14*
X1190752Y684276D03*
X1254252Y709676D03*
D13*
X1418844Y658876D03*
D14*
X1380744Y684276D03*
X1444244Y709676D03*
D13*
X1608836Y658876D03*
D14*
X1570736Y684276D03*
X1634236Y709676D03*
D13*
X1798828Y658876D03*
D14*
X1760728Y684276D03*
X1824228Y709676D03*
D13*
X1988820Y658876D03*
D14*
X1950720Y684276D03*
X2014220Y709676D03*
D13*
X2178812Y658876D03*
D14*
X2140712Y684276D03*
X2204212Y709676D03*
D13*
X848868Y88900D03*
D14*
X810768Y114300D03*
X874268Y139700D03*
D13*
X1038860Y88900D03*
D14*
X1000760Y114300D03*
X1064260Y139700D03*
D13*
X1228852Y88900D03*
D14*
X1190752Y114300D03*
X1254252Y139700D03*
D13*
X1418844Y88900D03*
D14*
X1380744Y114300D03*
X1444244Y139700D03*
D13*
X1608836Y88900D03*
D14*
X1570736Y114300D03*
X1634236Y139700D03*
D15*
X747776Y519430D03*
X557784Y519430D03*
X367792Y519430D03*
X177800Y519430D03*
X2138680Y709930D03*
X2044700Y709930D03*
X1887728Y709930D03*
X1697736Y709930D03*
X1507744Y709930D03*
X1317752Y709930D03*
X1127760Y709930D03*
X937768Y709930D03*
X747776Y709930D03*
X557784Y709930D03*
X367792Y709930D03*
X177800Y709930D03*
X2251964Y711200D03*
X2251964Y520700D03*
X1507744Y330200D03*
X1317752Y330200D03*
X1127760Y330200D03*
X937768Y330200D03*
X747776Y330200D03*
X557784Y330200D03*
X367792Y330200D03*
X177800Y330200D03*
X2138680Y519430D03*
X2044700Y519430D03*
X1887728Y519430D03*
X1697736Y519430D03*
X1507744Y519430D03*
X1317752Y519430D03*
X1127760Y519430D03*
X937768Y519430D03*
X2138680Y139700D03*
X2044700Y139700D03*
X1887728Y139700D03*
X1697736Y139700D03*
X1507744Y139700D03*
X1317752Y139700D03*
X1127760Y139700D03*
X937768Y139700D03*
X747776Y139700D03*
X557784Y139700D03*
X367792Y139700D03*
X177800Y139700D03*
X2138680Y330200D03*
X2044700Y330200D03*
X1887728Y330200D03*
X1697736Y330200D03*
X215900Y635000D03*
M02*
