G04 EAGLE Gerber RS-274X export*
G75*
%MOMM*%
%FSLAX34Y34*%
%LPD*%
%INSoldermask Bottom*%
%IPPOS*%
%AMOC8*
5,1,8,0,0,1.08239X$1,22.5*%
G01*
G04 Define Apertures*
%ADD10C,5.207000*%
%ADD11C,2.451100*%
%ADD12C,1.311200*%
D10*
X88900Y88900D03*
D11*
X50800Y114300D03*
X114300Y139700D03*
D10*
X1798828Y88900D03*
D11*
X1760728Y114300D03*
X1824228Y139700D03*
D10*
X1988820Y88900D03*
D11*
X1950720Y114300D03*
X2014220Y139700D03*
D10*
X2178812Y88900D03*
D11*
X2140712Y114300D03*
X2204212Y139700D03*
D10*
X88900Y278892D03*
D11*
X50800Y304292D03*
X114300Y329692D03*
D10*
X278892Y278892D03*
D11*
X240792Y304292D03*
X304292Y329692D03*
D10*
X468884Y278892D03*
D11*
X430784Y304292D03*
X494284Y329692D03*
D10*
X658876Y278892D03*
D11*
X620776Y304292D03*
X684276Y329692D03*
D10*
X848868Y278892D03*
D11*
X810768Y304292D03*
X874268Y329692D03*
D10*
X1038860Y278892D03*
D11*
X1000760Y304292D03*
X1064260Y329692D03*
D10*
X1228852Y278892D03*
D11*
X1190752Y304292D03*
X1254252Y329692D03*
D10*
X278892Y88900D03*
D11*
X240792Y114300D03*
X304292Y139700D03*
D10*
X1418844Y278892D03*
D11*
X1380744Y304292D03*
X1444244Y329692D03*
D10*
X1608836Y278892D03*
D11*
X1570736Y304292D03*
X1634236Y329692D03*
D10*
X1798828Y278892D03*
D11*
X1760728Y304292D03*
X1824228Y329692D03*
D10*
X1988820Y278892D03*
D11*
X1950720Y304292D03*
X2014220Y329692D03*
D10*
X2178812Y278892D03*
D11*
X2140712Y304292D03*
X2204212Y329692D03*
D10*
X88900Y468884D03*
D11*
X50800Y494284D03*
X114300Y519684D03*
D10*
X278892Y468884D03*
D11*
X240792Y494284D03*
X304292Y519684D03*
D10*
X468884Y468884D03*
D11*
X430784Y494284D03*
X494284Y519684D03*
D10*
X658876Y468884D03*
D11*
X620776Y494284D03*
X684276Y519684D03*
D10*
X848868Y468884D03*
D11*
X810768Y494284D03*
X874268Y519684D03*
D10*
X468884Y88900D03*
D11*
X430784Y114300D03*
X494284Y139700D03*
D10*
X1038860Y468884D03*
D11*
X1000760Y494284D03*
X1064260Y519684D03*
D10*
X1228852Y468884D03*
D11*
X1190752Y494284D03*
X1254252Y519684D03*
D10*
X1418844Y468884D03*
D11*
X1380744Y494284D03*
X1444244Y519684D03*
D10*
X1608836Y468884D03*
D11*
X1570736Y494284D03*
X1634236Y519684D03*
D10*
X1798828Y468884D03*
D11*
X1760728Y494284D03*
X1824228Y519684D03*
D10*
X1988820Y468884D03*
D11*
X1950720Y494284D03*
X2014220Y519684D03*
D10*
X2178812Y468884D03*
D11*
X2140712Y494284D03*
X2204212Y519684D03*
D10*
X88900Y658876D03*
D11*
X50800Y684276D03*
X114300Y709676D03*
D10*
X278892Y658876D03*
D11*
X240792Y684276D03*
X304292Y709676D03*
D10*
X468884Y658876D03*
D11*
X430784Y684276D03*
X494284Y709676D03*
D10*
X658876Y88900D03*
D11*
X620776Y114300D03*
X684276Y139700D03*
D10*
X658876Y658876D03*
D11*
X620776Y684276D03*
X684276Y709676D03*
D10*
X848868Y658876D03*
D11*
X810768Y684276D03*
X874268Y709676D03*
D10*
X1038860Y658876D03*
D11*
X1000760Y684276D03*
X1064260Y709676D03*
D10*
X1228852Y658876D03*
D11*
X1190752Y684276D03*
X1254252Y709676D03*
D10*
X1418844Y658876D03*
D11*
X1380744Y684276D03*
X1444244Y709676D03*
D10*
X1608836Y658876D03*
D11*
X1570736Y684276D03*
X1634236Y709676D03*
D10*
X1798828Y658876D03*
D11*
X1760728Y684276D03*
X1824228Y709676D03*
D10*
X1988820Y658876D03*
D11*
X1950720Y684276D03*
X2014220Y709676D03*
D10*
X2178812Y658876D03*
D11*
X2140712Y684276D03*
X2204212Y709676D03*
D10*
X848868Y88900D03*
D11*
X810768Y114300D03*
X874268Y139700D03*
D10*
X1038860Y88900D03*
D11*
X1000760Y114300D03*
X1064260Y139700D03*
D10*
X1228852Y88900D03*
D11*
X1190752Y114300D03*
X1254252Y139700D03*
D10*
X1418844Y88900D03*
D11*
X1380744Y114300D03*
X1444244Y139700D03*
D10*
X1608836Y88900D03*
D11*
X1570736Y114300D03*
X1634236Y139700D03*
D12*
X747776Y519430D03*
X557784Y519430D03*
X367792Y519430D03*
X177800Y519430D03*
X2138680Y709930D03*
X2044700Y709930D03*
X1887728Y709930D03*
X1697736Y709930D03*
X1507744Y709930D03*
X1317752Y709930D03*
X1127760Y709930D03*
X937768Y709930D03*
X747776Y709930D03*
X557784Y709930D03*
X367792Y709930D03*
X177800Y709930D03*
X2251964Y711200D03*
X2251964Y520700D03*
X1507744Y330200D03*
X1317752Y330200D03*
X1127760Y330200D03*
X937768Y330200D03*
X747776Y330200D03*
X557784Y330200D03*
X367792Y330200D03*
X177800Y330200D03*
X2138680Y519430D03*
X2044700Y519430D03*
X1887728Y519430D03*
X1697736Y519430D03*
X1507744Y519430D03*
X1317752Y519430D03*
X1127760Y519430D03*
X937768Y519430D03*
X2138680Y139700D03*
X2044700Y139700D03*
X1887728Y139700D03*
X1697736Y139700D03*
X1507744Y139700D03*
X1317752Y139700D03*
X1127760Y139700D03*
X937768Y139700D03*
X747776Y139700D03*
X557784Y139700D03*
X367792Y139700D03*
X177800Y139700D03*
X2138680Y330200D03*
X2044700Y330200D03*
X1887728Y330200D03*
X1697736Y330200D03*
X215900Y635000D03*
M02*
